<?xml version="1.0" encoding="UTF-8"?>
<svg id="_图层_1" xmlns="http://www.w3.org/2000/svg" version="1.1" viewBox="0 0 128 128">
  <!-- Generator: Adobe Illustrator 29.5.1, SVG Export Plug-In . SVG Version: 2.1.0 Build 141)  -->
  <defs>
    <style>
      .st0 {
        fill: #1296db;
      }
    </style>
  </defs>
  <path class="st0" d="M28.6,98.8c0,2.6,2.1,4.7,4.7,4.7s4.7-2.1,4.7-4.7h0c0-2.6-2.1-4.7-4.7-4.7s-4.7,2.1-4.7,4.7h0Z"/>
  <path class="st0" d="M38,98.9c0,2.6,2.1,4.7,4.7,4.7s4.7-2.1,4.7-4.7h0c0-2.6-2.1-4.7-4.7-4.7s-4.7,2.1-4.7,4.7h0Z"/>
  <polygon class="st0" points="55.1 74.1 51.4 103.5 29.2 103.5 25.5 74.1 16.9 75.3 22.2 112.1 58.4 112.1 63.7 75.3 55.1 74.1"/>
  <g>
    <path class="st0" d="M71.75,23.95c0,4.3-3.49,7.78-7.78,7.78s-7.78-3.49-7.78-7.78,3.48-7.78,7.78-7.78,7.78,3.49,7.78,7.78Z"/>
    <path class="st0" d="M79.76,108.44l6.94-32.73,9.78,32.78c.36,2.06,2.31,3.45,4.38,3.09,2.06-.36,3.45-2.31,3.09-4.38,0,0-7.27-40.57-7.67-43.1-.4-2.52-.46-5.11-2.55-9.44,0,0-9.74-16.56-12.53-19.8-2.78-3.24-7.58-3.71-10.56-1.16l-13.89,12.3-11.14,5.26c-1.37.62-1.97,2.23-1.36,3.59.62,1.37,2.23,1.97,3.6,1.36l10.5-2.97c1.14-.52,1.85-.87,2.89-1.68l6.04-4.33,10.44,15.47-5.49,44.93c-.22,2.08,1.29,3.95,3.37,4.17s3.95-1.29,4.17-3.37h-.01Z"/>
  </g>
</svg>