<?xml version="1.0" encoding="UTF-8"?>
<svg id="_图层_1" xmlns="http://www.w3.org/2000/svg" version="1.1" viewBox="0 0 128 128">
  <!-- Generator: Adobe Illustrator 29.5.1, SVG Export Plug-In . SVG Version: 2.1.0 Build 141)  -->
  <defs>
    <style>
      .st0 {
        fill: #1296db;
      }
    </style>
  </defs>
  <path class="st0" d="M28.6,98.8c0,2.6,2.1,4.7,4.7,4.7s4.7-2.1,4.7-4.7h0c0-2.6-2.1-4.7-4.7-4.7s-4.7,2.1-4.7,4.7h0Z"/>
  <path class="st0" d="M38,98.9c0,2.6,2.1,4.7,4.7,4.7s4.7-2.1,4.7-4.7h0c0-2.6-2.1-4.7-4.7-4.7s-4.7,2.1-4.7,4.7h0Z"/>
  <path class="st0" d="M43.5,91.4c0,2.6,2.2,4.6,4.8,4.6s4.6-2.2,4.6-4.8h0c0-2.6-2.2-4.6-4.8-4.6s-4.6,2.2-4.6,4.8h0Z"/>
  <path class="st0" d="M34.1,90.5c0,2.6,2.2,4.6,4.8,4.6s4.6-2.2,4.6-4.8h0c0-2.6-2.2-4.6-4.8-4.6s-4.6,2.2-4.6,4.8h0Z"/>
  <path class="st0" d="M26.8,84.9c0,2.6,2.2,4.6,4.8,4.6s4.6-2.2,4.6-4.8h0c0-2.6-2.2-4.6-4.8-4.6s-4.6,2.2-4.6,4.8h0Z"/>
  <path class="st0" d="M32,77c0,2.6,2.2,4.6,4.8,4.6s4.6-2.2,4.6-4.8h0c0-2.6-2.2-4.6-4.8-4.6s-4.6,2.2-4.6,4.8h0Z"/>
  <path class="st0" d="M24.4,70.9c0,2.6,2.2,4.6,4.8,4.6s4.6-2.2,4.6-4.8h0c0-2.6-2.2-4.6-4.8-4.6s-4.6,2.2-4.6,4.8h0Z"/>
  <path class="st0" d="M59.3,107.5c0,2.6,2.2,4.6,4.8,4.6s4.6-2.2,4.6-4.8h0c0-2.6-2.2-4.6-4.8-4.6s-4.6,2.2-4.6,4.8h0Z"/>
  <path class="st0" d="M6.9,107.5c0,2.6,2.2,4.6,4.8,4.6s4.6-2.2,4.6-4.8h0c0-2.6-2.2-4.6-4.8-4.6s-4.6,2.2-4.6,4.8h0Z"/>
  <path class="st0" d="M39.4,82.9c0,2.6,2.2,4.6,4.8,4.6s4.6-2.2,4.6-4.8h0c0-2.6-2.2-4.6-4.8-4.6s-4.6,2.2-4.6,4.8h0Z"/>
  <path class="st0" d="M45.2,75.5c0,2.6,2.2,4.6,4.8,4.6s4.6-2.2,4.6-4.8h0c0-2.6-2.2-4.6-4.8-4.6s-4.6,2.2-4.6,4.8h0Z"/>
  <path class="st0" d="M68.7,26.5c0,5.2,4.2,9.4,9.4,9.4s9.4-4.2,9.4-9.4-4.2-9.4-9.4-9.4-9.4,4.2-9.4,9.4Z"/>
  <path class="st0" d="M101.3,76.8l-4.9-20.6,6.5,6.5c.9.9,2.1,1.4,3.3,1.4s2.4-.5,3.3-1.4c1.8-1.8,1.8-4.8,0-6.6l-15.4-15.4h-21.8l-19.8,9.9c-2.3,1.2-3.2,4-2.1,6.3s4,3.2,6.3,2.1l13.7-6.8,7.5,26.4-4.5,27.1c-.4,2.6,1.3,5,3.8,5.4,2.6.4,5-1.3,5.4-3.8l4-24.2h6.7l8.3,24.9c.7,2,2.5,3.2,4.4,3.2s1,0,1.5-.2c2.4-.8,3.8-3.5,2.9-5.9l-9.3-28,.2-.3Z"/>
  <polygon class="st0" points="55.1 74.1 51.4 103.5 29.2 103.5 25.5 74.1 16.9 75.3 22.2 112.1 58.4 112.1 63.7 75.3 55.1 74.1"/>
</svg>