<?xml version="1.0" standalone="no"?><!DOCTYPE svg PUBLIC "-//W3C//DTD SVG 1.1//EN" "http://www.w3.org/Graphics/SVG/1.1/DTD/svg11.dtd"><svg t="1754960250964" class="icon" viewBox="0 0 1024 1024" version="1.1" xmlns="http://www.w3.org/2000/svg" p-id="2461" xmlns:xlink="http://www.w3.org/1999/xlink" width="32" height="32"><path d="M970.23744 913.92512c0 41.00352-198.2848 74.24-442.88 74.24s-442.88-33.23648-442.88-74.24c0-41.00096 198.2848-74.24 442.88-74.24s442.88 33.23904 442.88 74.24z" fill="#F5D0BD" p-id="2462"></path><path d="M641.45152 59.29472a14.00576 14.00576 0 0 1 8.57088 0.60672c3.4816 1.3824 5.7856 3.8656 6.79936 5.01504 2.44736 2.76736 4.83072 6.63552 6.98624 10.49088 2.28096 4.08064 4.77952 9.01632 7.3984 14.47936 7.40352 15.44704 16.33024 36.29312 24.8448 56.5888-0.5888-7.50336-0.87552-14.51008-0.59136-20.1984 0.13568-2.67264 0.40704-5.4016 0.93952-7.94112 0.49152-2.33216 1.41312-5.59616 3.4816-8.5504 2.37824-3.39712 6.76608-6.8864 12.992-6.79168 4.5184 0.06912 8.04096 2.05568 10.29376 3.72224l0.88832 0.6912 0.85248 0.72704c4.25472 3.8016 8.43008 10.0608 12.19072 16.35584 4.35968 7.296 9.28256 16.63488 14.50752 27.33568 10.46272 21.43488 22.4384 48.9984 33.88928 78.10816 11.45344 29.11744 22.45632 59.97056 30.94016 87.99744 6.81472 22.51264 12.1728 43.75296 14.69952 60.98176 2.92608-6.23872 6.04928-13.61408 9.24416-21.76 15.13984-38.59712 30.94272-91.42016 35.92192-113.36448l0.31488-1.344c1.62048-6.6688 3.86304-12.5184 6.89152-17.22112 3.20256-4.97152 7.96672-9.65888 14.63552-11.37408 7.00672-1.80224 13.43232 0.35072 18.19904 3.81696 4.57216 3.32032 8.04096 8.05632 10.62144 13.05344 10.16832 19.68896 12.60032 54.99392-2.33216 95.04-6.72256 18.02496-4.3776 24.21504-3.37408 25.75872 1.0368 1.58976 4.0576 3.63264 12.86144 4.49536 4.01152 0.39168 8.2816 0.46592 12.91008 0.53248 4.33152 0.06144 9.34656 0.11264 13.74208 0.62464 3.92448 0.45568 10.16064 1.51552 15.06816 5.58592a18.28352 18.28352 0 0 1 6.0672 9.44896c0.99584 3.76576 0.70656 7.3984-0.03072 10.49856-0.82944 3.48416-2.5472 6.9376-4.21888 9.86368-1.78432 3.1232-4.05504 6.56128-6.63552 10.1888-5.16608 7.26016-12.0448 15.936-19.91936 25.4464-15.75168 19.01568-36.20352 42.21696-56.33792 65.37472-20.25472 23.296-40.22784 46.60224-55.4368 66.25536-7.61088 9.83808-13.8496 18.52928-18.28352 25.69984-4.15232 6.71744-5.94176 10.88256-6.47424 12.88704 4.62336 0.14848 12.62848-1.5232 23.09632-5.47584 10.67776-4.032 22.2208-9.76896 32.17664-15.71072 10.23488-6.1056 17.69728-11.77856 21.0048-15.40352l1.95584-2.10176c9.75616-10.30912 19.33824-17.53344 28.32896-19.7248 5.2096-1.26976 11.84768-1.16992 17.49504 3.18976 5.44 4.20352 7.26784 10.3168 7.68 15.12704 0.80384 9.32608-2.90048 20.39552-8.7936 31.0144-5.76768 10.38848-14.41792 21.7728-26.112 33.04704l-2.3808 2.2528-0.55552 0.52224c9.17248-2.48832 19.94496-5.55008 27.91936-6.96576 2.65728-0.47104 5.40672-0.84224 8.02816-0.94976 2.42944-0.09984 5.73952-0.0256 9.02144 1.05216 3.55328 1.16736 8.46848 4.08576 10.41152 10.25792 1.68448 5.35296 0.0896 10.14784-1.13408 12.86656-2.7392 6.08512-7.90272 10.95936-12.60288 14.784-4.97664 4.0448-11.2 8.27136-17.78688 12.65408-13.46048 8.95488-29.7088 19.40736-46.44096 33.39776-32.61696 27.27168-66.68288 67.70688-79.90528 133.65248l-0.61184 3.15904c-6.03392 32.0768-31.53152 54.94016-59.83232 69.40672-28.56704 14.60224-62.59712 22.09536-90.79808 22.09536-12.10112 0-61.25312-2.50624-99.84768-16.55552-18.93376-6.89408-38.38976-17.63328-47.69536-35.10272-10.19136-19.13088-5.98016-41.3952 11.62496-65.18272l0.42496-0.57856 0.49152-0.5248c76.99456-82.7904 213.22752-314.44224 145.8304-579.48672l-1.62816-6.26688c-11.3792-42.7904-19.42272-75.00288-24.76288-98.5856-5.27872-23.3088-8.08704-38.90688-8.68096-48.05632-0.15104-2.33472-0.192-4.68992 0.02048-6.8608 0.15616-1.60512 0.61952-5.46816 3.2-8.9088a13.8624 13.8624 0 0 1 7.74144-5.16352z m80.61952 90.8416c0.37888 3.98592 0.82944 8.21504 1.344 12.59264 0.82944 7.0656 1.76896 14.272 2.67264 21.18912 0.89856 6.87616 1.7664 13.50656 2.42944 19.2512 0.6528 5.64736 1.16224 10.88768 1.25952 14.84544 0.04608 1.8432 0.03328 4.21632-0.36096 6.43328a15.82848 15.82848 0 0 1-1.91488 5.30688c-1.42592 2.40384-5.10464 6.62272-11.51744 6.62272a13.11744 13.11744 0 0 1-7.08608-2.08896 13.99808 13.99808 0 0 1-2.53952-2.0992 17.8816 17.8816 0 0 1-1.99168-2.53184 43.39456 43.39456 0 0 1-2.27584-3.99872c-1.41312-2.7648-3.15392-6.54592-5.08672-10.92864-3.89632-8.82432-8.97024-20.97664-14.5152-34.28864-3.42272-8.21504-7.02976-16.87808-10.67008-25.5488 4.50304 18.23488 10.07104 39.88992 16.85504 65.39776l1.69984 6.53568c70.13888 275.79648-70.77888 515.60192-151.35488 602.63936-14.00064 19.14112-12.95872 30.4128-9.23392 37.40928 4.6464 8.7168 16.27136 16.6784 33.85856 23.08096 34.45248 12.544 80.1152 15.01184 91.08992 15.01184 24.27648 0 54.2976-6.58944 79.14752-19.29216 25.11616-12.8384 42.40384-30.50752 46.3232-51.3408l0.6784-3.49952c14.65856-73.05728 52.75392-118.26688 88.57856-148.22144 16.30464-13.63456 32.22016-24.16384 44.8-32.49664-1.98912 0.53248-4.00896 1.07008-6.04928 1.58976-5.68064 1.44384-11.6224 2.7904-16.704 3.32288-2.51392 0.26368-5.44768 0.39936-8.33024 0.00256-2.57792-0.35584-7.31392-1.42848-10.94656-5.51936-4.25984-4.79232-4.34176-10.54208-3.4048-14.5024 0.85248-3.60704 2.7136-6.82752 4.50816-9.42336 3.6864-5.34016 9.79456-11.83232 18.2528-19.70176l2.05568-1.94304c10.0736-9.71264 17.09056-19.11296 21.48864-27.03616 1.2416-2.23488 2.22464-4.26496 3.00288-6.08256a94.23872 94.23872 0 0 0-6.58176 6.33856l-1.79456 1.92768c-5.9136 6.47936-16.02304 13.70112-26.79808 20.12928-11.05152 6.59456-23.95648 13.03296-36.25216 17.67424-11.7632 4.4416-24.88064 7.99232-35.56096 6.94784-5.5424-0.54272-12.31872-2.51648-17.18272-8.29184-5.02016-5.95968-5.84192-13.36576-4.8896-20.0192 1.05216-7.36512 5.39904-15.70048 10.19648-23.45984 5.10976-8.26368 11.96032-17.76128 19.80928-27.904 15.71328-20.30592 36.13696-44.1216 56.36352-67.38432 20.34432-23.40096 40.45056-46.20288 55.94112-64.90624 7.744-9.34912 14.1568-17.46176 18.77504-23.95648a124.14208 124.14208 0 0 0 3.78112-5.6064c-2.0736-0.0896-4.46976-0.128-7.28064-0.16896-4.46208-0.064-9.792-0.13824-15.03744-0.6528-9.71008-0.94976-23.8464-3.76064-31.8208-16.01024-8.00256-12.29568-6.5152-28.93312 0.8448-48.66816 13.22496-35.47136 9.48992-62.88896 3.5712-74.34496-0.1664-0.32256-0.33024-0.61696-0.4864-0.896-0.64768 1.47968-1.33632 3.4304-1.99168 5.93408l-0.4736 1.9456c-5.28896 23.30624-21.48352 77.3632-37.056 117.05344-3.90912 9.96608-7.85152 19.21024-11.64288 26.93376-3.6608 7.45984-7.62112 14.43328-11.74272 19.15904-1.93024 2.2144-5.05344 5.31456-9.39264 6.88896a16.04096 16.04096 0 0 1-8.70912 0.68864 15.9744 15.9744 0 0 1-7.9488-4.23936c-3.52256-3.41504-5.11232-7.88224-5.97248-11.12832-0.96-3.61472-1.55392-7.872-1.90464-12.60032-1.16992-15.80032-6.65344-39.3984-14.9632-66.85952-8.23808-27.2128-18.9952-57.40032-30.26176-86.0416-11.26656-28.6464-22.976-55.5648-33.07008-76.2496a500.55936 500.55936 0 0 0-6.53056-12.92032zM637.66016 81.8944l-0.01792-0.02304c-0.15104-0.17152-0.14336-0.13568 0.01792 0.02304z m18.32704-6.03392l-0.00256 0.03328a1.62048 1.62048 0 0 0 0.00256-0.03328z" fill="#000000" p-id="2463"></path><path d="M688.63744 233.65376c70.33088 263.89504-69.15072 509.42208-145.92 591.78752-61.90848 83.47136 90.31936 84.6464 112.64 84.6464 50.76224 0 126.39232-33.57952 136.01792-84.6464 26.00192-137.96096 141.94176-168.84736 153.08544-193.55648 11.14368-24.70912-113.3952 39.50336-49.07776-20.17792 46.60224-43.24096 24.42752-60.12672-14.7456-17.29792-17.8432 19.50976-94.21568 43.06944-89.26208 8.47872 4.9536-34.59328 156.032-192.93696 162.22208-218.88 6.19008-25.9456-73.5232 16.8448-46.28224-56.04608 27.24096-72.89344-5.29408-117.12-16.43776-68.11392-9.93024 43.6736-68.54656 202.368-73.50016 135.65184-4.95104-66.7136-80.48128-248.32512-100.29312-264.38656-19.81184-16.06144 18.09152 99.85024 8.67328 100.57472-25.6 1.96608-88.81152-192-37.12 1.96608z" fill="#CD5B37" p-id="2464"></path><path d="M692.48 238.08768c51.2 284.16-83.70944 509.0176-149.76512 588.8-60.15744 85.76 97.77152 67.03872 116.48512 62.72 33.28-7.68 81.31584-13.25568 89.59744-62.72 22.3744-133.63712 91.5328-120.70656 101.12-144.64 9.58976-23.936-74.54464 42.44992-19.2-15.36 25.41824-26.54976 37.12-53.76 0-28.16-20.04224 13.82144-69.53984 6.62784-65.28-26.88 4.2624-33.5104 127.79264-183.51104 133.12-208.64 5.32736-25.13152-36.23936 6.6048-12.8-64 23.43936-70.60736 25.6-145.92 0-57.6-25.71776 88.7296-75.16416 170.24-78.84032 114.46272-4.2624-64.62208-69.25312-240.54016-86.30016-256.09984-17.04704-15.55712 20.50048 92.99712 0 92.99712s-82.12992-195.77344-28.13696 5.12z" fill="#E98D70" p-id="2465"></path><path d="M354.5216 33.6128c4.93312-1.07264 8.97536 0.64 11.44576 2.28352l0.4736 0.32512 0.79872 0.60928c1.81248 1.46432 3.23584 3.18208 4.20864 4.44672 1.2672 1.64864 2.54464 3.56864 3.8016 5.62944 2.52416 4.13696 5.3376 9.44128 8.256 15.59552 5.85216 12.3392 12.43136 28.71296 18.28608 47.25248 11.6096 36.7488 20.91008 83.70432 14.71744 125.1584-6.144 41.14688-29.4144 86.61504-47.63648 121.32608-6.38976 12.17024-12.09856 22.89152-16.5376 31.96416 1.04192-1.09056 2.11712-2.22464 3.21536-3.41248 14.76096-15.97184 33.06752-39.0912 50.94912-64.67328 17.87392-25.57184 35.07456-53.25056 47.74912-78.27712 13.00224-25.6768 20.1344-46.48448 20.1344-59.0976 0-8.23808 0.3072-14.99392 0.92672-20.3904 0.58368-5.08416 1.55904-10.10688 3.52256-14.11584 1.00352-2.048 2.74176-4.8384 5.77536-6.94528a15.05792 15.05792 0 0 1 11.77344-2.3936c3.56864 0.75264 6.17472 2.60864 7.76192 3.98336 1.67168 1.44896 3.0336 3.09248 4.11392 4.57216 4.07552 5.5808 7.8208 14.11072 10.91584 22.33344 0.8448 2.24512 1.67168 4.5568 2.47808 6.90176l1.42336-3.50464c3.83488-9.4592 8.61696-21.12512 13.9008-28.70528 2.31424-3.32288 6.784-9.0112 13.80864-10.7776a17.12128 17.12128 0 0 1 12.34944 1.52832c3.51232 1.87392 5.98272 4.66432 7.71072 7.20896 2.69056 3.96032 3.73248 8.51712 4.18816 12.27776 0.48128 3.96288 0.45056 8.33792 0.1152 12.85632-0.67072 9.04448-2.68032 20.06528-5.63456 32.25088-5.92896 24.4608-16.03328 55.1552-28.58496 87.22432-24.57088 62.77632-59.40224 133.05344-92.3904 173.07904l-1.56672 1.8816c-14.52544 17.2288-24.63744 44.87936-27.52 73.64096-2.90048 28.928 1.792 55.99232 13.44768 72.7168 0.91904 1.32096 2.71872 2.78016 7.0016 3.26656 4.50048 0.50944 10.89792-0.2304 18.91072-2.91584 15.95904-5.3504 35.4688-17.46432 53.25056-35.22304 35.52512-35.48416 61.39392-90.46272 41.15456-152.55808-11.05152-33.89952-16.03328-55.54688-16.22272-68.11648-0.04864-3.264 0.19712-6.72256 1.16992-9.95584 0.96512-3.20768 3.08736-7.54944 7.75168-10.27584 4.8384-2.83136 9.7792-2.40128 13.08672-1.43872 3.17952 0.92416 5.86752 2.5856 7.87968 4.0576 2.61888 1.91744 5.31712 4.4544 7.99744 7.34208-0.16896-3.07712-0.256-6.0416-0.23808-8.80384 0.03072-4.71296 0.36608-9.89952 1.64352-14.28992 0.63488-2.176 1.78944-5.19424 4.10624-7.86944 2.64192-3.05408 6.74304-5.52192 11.9168-5.52192l0.69632 0.01536c7.104 0.28928 12.02176 4.94336 14.42048 7.56992 2.9696 3.25632 5.61664 7.39072 7.93856 11.584 4.70528 8.49152 9.37216 19.6096 13.60128 30.80704 8.46848 22.43328 16.03328 47.57248 19.10016 56.95744 5.6832 17.40032 26.73152 62.08512 27.52768 114.93888 5.88544-4.34688 13.94688-12.31616 22.97856-23.3984 11.12576-13.64992 22.49728-30.46912 31.42656-46.89152 9.09824-16.73216 14.97088-31.808 16.27136-42.25792 0.93184-7.49568 2.89536-14.30528 6.45632-19.6608 3.78112-5.68576 9.59232-9.92 17.00608-10.48832 6.88384-0.52736 12.864 2.28864 17.2544 5.58848 4.48512 3.36896 8.32768 7.95136 11.4304 13.02528 11.61984 19.00544 16.72192 51.4432-1.42848 81.74592 2.688 0.09984 5.824 0.71424 8.8448 2.55488 6.56128 3.9936 8.24576 10.79296 8.24576 15.8848 0 25.02656-10.57536 44.10624-26.7648 57.92768-14.76608 12.608-33.92256 20.65664-53.42208 25.85088l-3.904 1.00096c-33.27744 8.21504-81.77408 33.10592-127.55456 92.28288-21.41696 27.6864-28.77184 67.71968-36.47232 110.18496-3.73504 20.608-7.5904 41.70752-13.55008 60.53888-5.7728 18.25024-13.8624 35.53536-26.78528 48.81152l-1.26464 1.27232c-3.6096 3.55072-8.93952 6.5536-14.20288 9.03168-5.61152 2.63936-12.45952 5.2736-20.096 7.72864-15.28064 4.91264-34.39872 9.32352-54.39232 11.584-19.9296 2.25024-41.28768 2.432-60.81024-1.50016-19.4816-3.92448-38.22848-12.18304-51.31008-27.72992l-0.36352-0.43008-0.32256-0.4608c-44.0704-62.82496-110.88896-160.20224-168.128-248.17664-28.61312-43.97568-54.90688-85.71904-74.78784-119.67232-9.93536-16.96512-18.34496-32.1152-24.66048-44.6976-5.76768-11.49184-10.25024-21.7216-12.2624-29.48864l-0.36864-1.5232c-1.50272-6.67136-2.31936-13.26336-1.1136-18.9312 0.64768-3.05408 2.02752-6.53824 4.86656-9.472 2.96448-3.06432 6.6048-4.57984 10.04544-5.0816 5.94944-0.86528 11.5968 1.25952 15.07328 2.78784 3.9808 1.75104 8.14592 4.15744 11.9296 6.45632 7.73888 4.69248 14.00832 8.896 19.328 11.40224 7.07328-20.2496 16.23808-47.76704 24.7168-68.3904 4.54144-11.0464 9.49248-21.67296 14.4768-28.19584 1.3184-1.72544 2.9568-3.5968 4.94592-5.18144 1.90464-1.52064 4.99456-3.47392 9.1136-3.92192 4.67456-0.50688 8.8832 1.1136 11.98848 3.80416 2.72896 2.36544 4.32128 5.2736 5.29152 7.54432l0.37888 0.92416c3.8016 9.66656 4.06016 22.848 3.52512 35.28192-0.58368 13.48864-2.32448 29.07392-3.90656 44.0576-1.61024 15.24736-3.06432 29.95968-3.29472 42.61376a141.06112 141.06112 0 0 0 0.23808 11.904c3.33824-4.38784 7.21152-10.05312 11.47648-16.94208 14.72-23.76192 32.44288-59.22816 47.17824-97.8944 14.76608-38.75072 26.2144-79.88736 28.94592-115.13344 2.74688-35.44064-3.56096-60.98688-19.10272-74.45248l-0.74496-0.63232c-10.8288-8.94464-19.17696-16.64-25.3696-23.232-6.0544-6.44352-10.62912-12.43648-13.2224-18.00448-2.41664-5.1968-4.6592-13.71136 0.90368-21.20448 4.96128-6.6816 12.83328-7.744 17.20832-7.88992 7.53408-0.25344 16.64 1.85856 25.28512 4.94848a93.91872 93.91872 0 0 1-2.08384-4.92032c-1.32608-3.43552-3.02848-8.48128-2.78528-13.36832 0.13312-2.63168 0.92672-7.11936 4.68992-10.76992 3.74528-3.63008 8.26624-4.3776 11.52256-4.25728l0.63232 0.03328 1.11104 0.11776c5.50656 0.75008 10.38848 3.9168 13.55264 6.20288 3.99104 2.88512 8.2688 6.68672 12.544 10.86208 8.59904 8.39424 18.23232 19.32032 27.1872 30.17216a660.28544 660.28544 0 0 1 9.48992 11.77344c-0.05888-0.9472-0.11008-1.8944-0.17152-2.84928-0.73472-11.392-1.71776-23.23712-3.01568-33.70752-1.2416-10.04288-2.69056-18.08384-4.24192-23.1808l-0.30976-0.97792c-1.29536-3.89888-2.30656-8.10496-2.17088-12.13184 0.13824-4.032 1.75104-11.11552 9.0624-14.46656 5.93408-2.72128 11.57632-0.85504 14.00064 0.12032 3.02848 1.22112 5.86496 3.05152 8.27648 4.8768l0.4736 0.36608c0.19968-2.3168 0.45056-4.5312 0.78848-6.53824 0.46592-2.7776 1.38752-7.33696 3.8784-11.0336 1.36448-2.0224 4.26496-5.35552 9.27488-6.44608z m10.98496 51.37408c0.00512 2.97984 0.00256 5.64736-0.04096 7.47264-0.02816 1.1136-0.07424 2.32192-0.17408 3.4048-0.0512 0.51968-0.13568 1.29536-0.30976 2.14016-0.03584 0.18688-0.48896 2.88768-2.3936 5.46048-1.09568 1.47968-4.09344 4.7872-9.3696 5.20192-5.23264 0.4096-8.68864-2.35008-9.97376-3.584a13.60384 13.60384 0 0 1-2.03008-2.50368c1.21856 10.43712 2.14272 21.7856 2.83648 32.50176 1.4592 22.57408 1.9456 42.88 2.05568 46.7712 0.02048 0.2816 0.03328 0.57856 0.03328 0.89088 0 0.0768 0.00256 0.26368-0.00256 0.4608a12.6592 12.6592 0 0 1-0.27392 2.39104c-0.04608 0.21248-0.29184 1.43872-0.97024 2.86208a12.83072 12.83072 0 0 1-3.20512 4.19072c-2.48832 2.14016-7.03488 4.1856-12.31104 2.46784a12.8 12.8 0 0 1-8.36608-8.7296 58.41664 58.41664 0 0 0-1.536-2.496c-1.664-2.58304-4.096-6.10048-7.13216-10.2912-6.05696-8.3584-14.24128-19.00032-22.8992-29.4912-0.9984-1.21088-2.00192-2.41152-3.00288-3.60704 0.15616 0.31232 0.30976 0.60672 0.44288 0.88832 0.41472 0.88064 1.39776 2.96448 1.82016 5.2352 0.128 0.68096 0.30208 1.85344 0.22784 3.29216a13.16352 13.16352 0 0 1-2.25536 6.74816 12.98688 12.98688 0 0 1-8.896 5.54496 13.25824 13.25824 0 0 1-6.14656-0.58368 15.52384 15.52384 0 0 1-4.1984-2.24 26.70592 26.70592 0 0 1-2.0992-1.74336 78.43328 78.43328 0 0 1-4.13952-4.14208c-1.91744-2.04032-4.84608-4.39296-8.6656-6.8096a91.97568 91.97568 0 0 0-12.52864-6.55616 91.10528 91.10528 0 0 0-10.60352-3.84768c0.5888 0.65792 1.21856 1.35168 1.89952 2.0736 5.21472 5.55264 12.68992 12.49792 23.0144 21.02528l1.216 1.02912c25.18528 21.7984 30.74816 58.43456 27.8528 95.76704-2.9952 38.67648-15.3472 82.38592-30.54592 122.27328-15.232 39.97184-33.64864 76.93056-49.33888 102.2592-7.74144 12.49792-15.26272 22.8992-21.79072 29.35808-2.97472 2.94144-7.22688 6.59968-12.34432 8.10496-2.88256 0.84736-6.94016 1.26208-11.16416-0.56064-4.2752-1.84576-6.8096-5.16096-8.192-8.04864-4.94336-10.3168-5.824-24.37376-5.5808-37.76 0.25088-13.94176 1.83808-29.73696 3.4304-44.8384 1.6256-15.37024 3.2512-29.98272 3.7888-42.47552 0.01024-0.19712 0.0128-0.39168 0.02048-0.58624l-0.4864 1.16992c-8.9984 21.89056-18.61632 51.3792-26.28352 72.96256l0.00256 0.00256c-1.12128 3.1616-3.0464 6.3488-6.1568 8.82176-3.12832 2.48832-6.63552 3.59936-9.8304 3.9168-5.77536 0.57344-11.27424-1.36192-15.05792-2.9952-7.73632-3.3408-17.15456-9.6128-23.67488-13.57056-0.68864-0.41728-1.35424-0.81152-1.9968-1.1904 1.45152 4.84608 4.6848 12.5184 9.984 23.07328 5.96992 11.89376 14.07488 26.51904 23.872 43.2512 19.584 33.4464 45.62944 74.8032 74.15296 118.64064 56.87552 87.41376 123.30496 184.24064 167.26784 246.9248 8.08192 9.37984 20.54656 15.53408 36.45184 18.7392 16.0768 3.2384 34.58816 3.2256 52.88448 1.15712 18.22976-2.0608 35.69152-6.09536 49.4336-10.51136 6.8736-2.21184 12.64896-4.46208 17.03168-6.52288 2.1888-1.03168 3.9168-1.96352 5.20448-2.75456 0.63744-0.39424 1.11872-0.72192 1.46432-0.97792 0.32768-0.24576 0.47104-0.37888 0.48384-0.39168l0.87552-0.87808c8.96256-9.21088 15.50592-22.21056 20.71552-38.67392 5.37856-17.00096 8.97536-36.44672 12.76928-57.3824 7.36512-40.6144 15.39584-87.65184 41.41056-121.28 49.088-63.45216 102.4384-91.79136 141.6704-101.47584l3.51744-0.90112c17.43104-4.65152 32.54528-11.3664 43.32032-20.56448 8.6784-7.40864 14.68928-16.51712 16.87552-28.23424-0.91904 0.37376-1.89184 0.77056-2.83904 1.13408-1.95072 0.74752-5.5424 2.10432-9.1008 2.34752-1.77408 0.12032-5.62688 0.14592-9.4208-2.2912-4.60288-2.9568-6.29248-7.60064-6.528-11.25888-0.19968-3.11552 0.56832-5.83936 1.17248-7.58272 0.67072-1.9328 1.59488-3.90656 2.62656-5.85728 2.07104-3.90656 5.1584-8.7936 9.31328-14.82496l0.70656-1.04704c14.54592-22.016 10.58816-45.39392 3.07968-57.67424-1.29536-2.11456-2.56512-3.67104-3.65056-4.75136-0.448 1.39264-0.91392 3.36896-1.25184 6.09536-1.90464 15.30368-9.65376 33.79712-19.18464 51.32544-9.69984 17.83552-21.9648 35.97056-34.07616 50.83136-11.69408 14.3488-24.58112 27.33056-35.7504 32.9088-5.14048 2.57024-14.66624 5.88032-23.26784-0.08192-8.064-5.59104-9.37472-15.45472-9.37472-22.52032 0-48.81408-19.264-88.56576-26.28864-110.07232-3.34592-10.23744-10.5216-34.14784-18.71872-55.86176-1.05984-2.80576-2.1248-5.53216-3.18208-8.15616 0.2432 2.14528 0.4992 4.3136 0.77312 6.47936 0.66816 5.2992 1.38752 10.43712 2.04032 15.04 0.64256 4.53376 1.23904 8.68352 1.6256 11.776 0.192 1.53344 0.3584 3.01824 0.45056 4.25984 0.04352 0.60672 0.0896 1.3696 0.08192 2.15808 0 0.18688 0.0512 2.49088-0.86272 4.95616-0.29184 0.78848-2.19904 5.97504-8.2688 7.86944-6.75072 2.10432-11.51744-1.87648-12.48768-2.74944a13.79584 13.79584 0 0 1-2.48832-3.00032 16.63232 16.63232 0 0 1-0.83968-1.55904c-0.64-1.35168-1.21856-3.01056-1.7024-4.47232-0.60928-1.84832-2.02752-5.02272-4.28544-9.1904a170.37312 170.37312 0 0 0-7.90784-13.06112 180.9664 180.9664 0 0 0-2.1888-3.21536l0.17408 0.768c2.38336 10.07616 6.1312 23.2064 11.61216 40.02048 24.128 74.02752-7.39584 138.64192-47.40352 178.60096-19.98848 19.96544-42.78016 34.53696-63.20896 41.3824-10.17856 3.41248-20.49792 5.14816-29.9264 4.08064-9.64608-1.09312-18.98752-5.26592-25.11872-14.06208-16.54784-23.744-21.1328-57.87904-17.92-89.90976 3.2256-32.20224 14.61248-65.28 33.41824-87.58784l1.43872-1.728c30.28224-36.7616 63.92064-103.90272 88.25088-166.06464 12.288-31.39328 21.97504-60.93824 27.5456-83.92192 1.07008-4.41088 1.9712-8.52736 2.70848-12.32384l-0.54016 1.32864c-3.68128 9.08032-8.04352 20.36224-12.25216 26.7904-1.12128 1.71008-2.75968 3.93216-4.992 5.76768-2.17344 1.78176-6.69696 4.60288-12.70784 3.47648-5.84192-1.09568-9.088-5.19424-10.55744-7.5776-1.37472-2.2272-2.30144-4.70016-2.97984-7.0144l-0.27904-0.98048a299.40992 299.40992 0 0 0-3.59936-12.22144c-2.22976 18.03008-11.10016 40.15872-22.34624 62.36672-13.36832 26.40128-31.26016 55.13472-49.60512 81.37472-18.33216 26.22976-37.36576 50.32448-53.13024 67.38432-7.82336 8.46592-15.19872 15.58784-21.51936 20.37504-3.10272 2.35008-6.52544 4.5824-10.03008 5.9904-2.96448 1.19296-9.27488 3.12832-15.59808-0.33024-9.33376-5.10208-9.7536-14.9504-9.18272-20.1728 0.61696-5.6448 2.80064-11.93728 5.32992-18.00192 5.1456-12.3392 13.81632-28.47488 22.85312-45.68832 18.6368-35.4944 39.59296-77.09696 44.98688-113.20576 5.34528-35.8016-2.65984-78.36928-13.80864-113.664-3.8144-12.0832-7.936-23.11424-11.87584-32.48128z m-32.256 319.79264v0.00256-0.00256z" fill="#000000" p-id="2466"></path><path d="M335.92064 880.75008c-77.30944-122.9824-254.54848-377.57952-265.5232-426.14528-10.97216-48.56576 43.43296 21.4272 51.0592 0 14.54592-40.8704 38.4-117.37088 47.37792-96.41984 11.22304 26.1888-13.71392 116.65664 0 145.22368 13.71648 28.5696 167.47776-257.536 89.77664-330.60096-65.3312-61.44-11.9808-23.49056 19.14624-13.41184 25.6 8.29184-11.08992-36.41856 5.12-35.22816 16.04864 1.1776 40.96 79.36 53.02528 67.20256-0.1792-5.80608 8.4096-81.93536-4.38528-104.32256-10.24-17.92 10.22464 12.85376 26.88 16.64 12.70272 2.88512-7.51616-51.42272 2.46016-44.28032 9.97632 7.1424 40.76288 111.36768 29.53984 186.36032-11.22048 74.99008-88.32 160-54.4768 173.12512 18.53952 7.19104 159.4368-161.14944 159.4368-223.04512 0-61.9008 8.89344-19.78624 17.62304 12.35456 8.72704 32.13824 27.4304-72.61184 43.64032-48.80384 16.20992 23.808-78.27712 236.56704-140.62336 310.36928-32.41984 38.37696-27.4304 118.1568 0 157.44 27.43296 39.28064 201.87392-68.83072 158.72-200.96-43.15136-132.12928 5.5936-52.58752 13.07648-29.96992 7.48032 22.61504-13.71648-72.61184 0-72.61184 13.71392 0 36.16 76.18304 42.3936 95.22688 6.2336 19.0464 25.16992 73.83808 25.16992 123.83488 0 49.99424 106.4064-62.64576 112.64-112.64 6.23616-49.9968 41.74336 0.70912 5.58336 53.08416-31.54176 45.68832 17.45664 0 17.45664 20.2368 0 40.62976-33.66656 60.70784-72.32 70.23104-35.26144 8.68608-84.78976 34.5216-130.92352 94.03904-46.13632 59.51744-29.9264 169.02912-74.81344 213.07136-15.55456 15.26272-135.91296 48.8064-177.05984 0z" fill="#CD5B37" p-id="2467"></path><path d="M72.95744 464.64512c25.60256 53.76 186.8032 294.28992 263.68 416.10496 36.94336 48.80384 116.52608 15.26016 130.49344 0 40.30464-44.0448 39.2832-145.38496 80.70656-204.9024 41.42592-59.52 106.57792-107.79392 138.24-116.48 34.70848-9.5232 83.2-23.14752 83.2-40.96256 0-20.2368-42.40128 29.04832-14.08-16.63744 32.46848-52.3776 14.80704-70.96832 0-37.12256-17.92 40.96256-117.62688 135.54688-131.84 90.88256-8.96-28.16 11.52-37.12256-11.52-100.92544-6.74304-18.67008 0-83.39456-8.96-87.23456-7.68 0-1.28 43.52-7.68 40.96-21.90592-8.76288-43.52-93.44-20.48 30.72 38.74816 132.12928-147.2 261.12-188.79232 172.73344-19.74272-41.95328-16.19712-118.80192 12.91008-157.17888 55.97952-73.80224 123.8272-209.36448 135.47008-245.95456 8.96-28.16256-13.27104 16.64-17.18784 6.4-11.81696-30.8992-18.2144-61.0944-28.16 0-8.96 55.04-163.84 277.76-194.56 224-16.64-29.12 60.32384-123.40992 70.4-198.4 10.07616-74.99264 5.11744-156.6976-3.84-163.84-8.95744-7.1424 7.49056 28.22144 0 28.224-19.2 0-31.18848-26.1888-23.34976 0 7.83616 26.1888-2.48832 88.22528-7.0656 89.53344-8.96 2.56-45.90848-71.68-52.78464-71.68s12.3264 44.9536 2.08384 36.51072c-24.06656-19.84-98.0864-68.51072-18.7264 15.96928 76.8 89.6-80.64 363.52-102.9888 343.04-22.93504-21.02016-4.5312-105.05984-4.5312-133.12 0-14.08-17.92 47.36-37.12 79.36-6.848 21.4272-64.82432-44.74112-43.51744 0z" fill="#E98D70" p-id="2468"></path></svg>