<?xml version="1.0" standalone="no"?><!DOCTYPE svg PUBLIC "-//W3C//DTD SVG 1.1//EN" "http://www.w3.org/Graphics/SVG/1.1/DTD/svg11.dtd"><svg t="1754960241221" class="icon" viewBox="0 0 1024 1024" version="1.1" xmlns="http://www.w3.org/2000/svg" p-id="2308" xmlns:xlink="http://www.w3.org/1999/xlink" width="32" height="32"><path d="M960 919.04c0 41.00096-198.2848 74.24-442.88 74.24-244.59776 0-442.88-33.23904-442.88-74.24s198.28224-74.24 442.88-74.24c244.5952 0 442.88 33.23904 442.88 74.24z" fill="#DACCB1" p-id="2309"></path><path d="M557.312 787.98336c-11.6352 111.9104-155.92704 117.08672-294.23616 102.70976-138.30912-14.37952-252.42368-80.01536-240.79104-191.92576 11.6352-111.9104 115.4432-253.50912 304.42496-242.53184 177.344 18.43712 242.23488 219.83744 230.60224 331.74784z" fill="#FFBD69" p-id="2310"></path><path d="M510.5024 821.75744a12.8 12.8 0 0 1 23.71072 9.63584l-0.83712 2.14016c-17.99424 44.57216-64.46592 64.40448-111.0912 72.64-48.04096 8.48384-100.92032 5.58848-137.09312 1.25696a12.8 12.8 0 0 1 3.04384-25.4208c35.07968 4.20096 85.11744 6.8096 129.59744-1.04704 45.15584-7.9744 80.08192-25.82784 92.42112-58.59584l0.24832-0.60928z m-414.06976 17.37728a12.8 12.8 0 0 1 17.51808-1.99168l0.512 0.4096 1.2288 0.99072c6.32832 4.9408 15.79008 9.76384 27.74528 14.21568 12.57216 4.67968 27.0848 8.65536 41.93536 11.92448 29.7472 6.54848 59.82208 10.0352 76.37248 10.85184a12.8 12.8 0 0 1-1.26208 25.56928c-18.0096-0.88832-49.50272-4.5696-80.6144-11.42016-15.58272-3.42784-31.3216-7.70816-45.3632-12.93568-13.4272-4.99968-26.10432-11.15648-35.584-18.83392l-0.90624-0.74752-0.49408-0.43776a12.8 12.8 0 0 1-1.088-17.59488z m348.47488-59.50208a12.8 12.8 0 0 1 24.79616 6.2208l-0.14336 0.64512-0.61952 2.36032c-6.64832 24.22784-20.72576 43.36384-35.3152 57.3696-14.0672 13.50144-29.13024 22.73792-39.89504 27.56864l-2.09408 0.91136-0.6144 0.23808a12.80256 12.80256 0 0 1-9.8432-23.59808l0.6016-0.2688 1.55392-0.67328c8.0768-3.6352 20.65152-11.2128 32.5632-22.64576 12.25216-11.76064 23.2448-27.06176 28.35456-45.68064l0.47616-1.81248 0.1792-0.63488zM363.84768 815.616a12.8 12.8 0 0 1 20.0832 15.8208l-0.39424 0.52736-1.024 1.26208c-10.76992 12.91776-27.49184 21.92128-42.57536 27.98848-14.93248 6.00576-29.99552 9.81248-40.22784 11.64032l-1.97888 0.34304-0.65536 0.08704a12.8 12.8 0 0 1-4.13184-25.2288l0.64768-0.12544 1.67168-0.28672c8.67584-1.55392 22.00832-4.90752 35.12064-10.18112 13.89824-5.58848 25.78944-12.64384 32.4224-20.57216l0.62208-0.77056 0.41984-0.50432z m-184.99328-5.23008a12.80512 12.80512 0 0 1 17.38752 2.92864l0.384 0.5376c3.9936 5.92896 12.0704 11.5456 22.2976 16.14848 9.90976 4.45952 20.10368 7.20128 26.17344 8.30976a12.8 12.8 0 0 1-4.60288 25.18272c-7.86432-1.43872-20.0704-4.74368-32.0768-10.14528-11.3152-5.0944-24.19712-12.81792-32.26368-24.09216l-0.76288-1.10336a12.8 12.8 0 0 1 3.46368-17.7664z m59.456-23.58528a12.79744 12.79744 0 0 1 13.6704 10.02496c0.29952 0.52736 0.86016 1.37984 1.7792 2.56768 1.96352 2.53696 4.8384 5.70112 8.29952 9.18528 6.87872 6.9248 15.14752 14.19776 20.63872 18.752a12.8 12.8 0 0 1-16.3456 19.70176c-5.91104-4.9024-14.83008-12.73856-22.4512-20.41344-3.79136-3.8144-7.5008-7.82592-10.38848-11.56096-1.44128-1.86112-2.86208-3.8912-4.00896-5.96736-1.02144-1.85088-2.44992-4.82816-2.77504-8.37632a12.80256 12.80256 0 0 1 11.58144-13.9136z m308.9792-125.93664a12.8 12.8 0 0 1 15.52128 9.31072c6.02624 24.10496 9.97888 55.20896 10.14528 84.9536 0.1664 29.29664-3.3152 59.33056-13.66784 80.03584a12.80256 12.80256 0 0 1-22.89664-11.44832c7.56736-15.13472 11.1232-40.14336 10.96448-68.44416-0.15616-27.8528-3.88864-56.91136-9.3824-78.8864a12.8 12.8 0 0 1 9.31584-15.52128zM11.78368 670.67648a12.8 12.8 0 0 1 25.18016 4.56192l-0.2688 1.83296c-5.44256 38.36416 5.88544 68.79744 22.48704 91.05152 16.61952 22.27456 38.27968 36.01664 53.16352 40.93184l1.41824 0.45056 0.62464 0.2048a12.80256 12.80256 0 0 1-7.3728 24.48128l-0.63488-0.17664-1.94048-0.60928c-20.25472-6.66112-46.21056-23.74656-65.7792-49.97376C18.176 755.968 4.4288 718.10816 11.66592 671.32416l0.11776-0.64768zM323.25376 792.064a12.8 12.8 0 0 1 21.12512 14.40256l-0.3584 0.55296-0.54528 0.77312c-5.71392 7.88224-13.97504 11.94752-20.77184 14.03136-6.63808 2.03264-13.18912 2.59584-17.84576 2.45248l-0.9088-0.03584-0.65536-0.05632a12.8 12.8 0 0 1 1.36704-25.52576l0.65792 0.01792 0.84736 0.02304c2.1632 0.01024 5.61408-0.30208 9.0368-1.35168 3.72992-1.14432 6.13376-2.74688 7.424-4.41856l0.2432-0.3328 0.384-0.53248z m-256.6912-97.66912a12.8 12.8 0 0 1 25.37216 3.38944c-3.52512 26.3936 6.2976 47.38816 20.608 64.46336 14.592 17.408 32.99584 29.76512 45.60128 38.8096a12.8 12.8 0 0 1-14.9248 20.8c-11.7248-8.41472-33.18016-22.75072-50.2912-43.16416-17.39264-20.74624-31.11936-48.70656-26.368-84.29824z m419.03872-24.66304a12.8 12.8 0 0 1 17.30048 3.39712l0.36864 0.54528c10.66496 16.79872 16.576 43.9936 16.33792 70.10816-0.2304 25.56672-6.4 54.08256-24.02816 72.49152l-0.84736 0.86528-0.47872 0.45568a12.8 12.8 0 0 1-18.12224-18.03264l0.45056-0.47872 1.04192-1.09056c10.61888-11.56352 16.1792-31.77984 16.384-54.44352 0.2048-22.52032-4.92288-43.61984-11.69152-55.07072l-0.66048-1.08032a12.80256 12.80256 0 0 1 3.94496-17.66656z m-82.28096 92.48256a12.8 12.8 0 0 1 18.93632 17.1776l-0.43008 0.4992-0.94976 1.02912c-9.22368 9.87648-19.74784 17.01888-25.23648 20.1344l-1.05984 0.5888-0.59392 0.2944a12.8 12.8 0 0 1-12.0704-22.53568l0.57344-0.32768 0.66816-0.36864c3.44832-1.97376 11.29984-7.23712 18.23744-14.44096l1.46944-1.5744 0.45568-0.47616z m-228.42112-23.49568a12.8 12.8 0 0 1 13.71392 11.81952c0.832 11.23072 8.77568 21.11488 12.416 24.24576a12.8 12.8 0 1 1-16.6912 19.40992c-6.61248-5.68576-19.74528-21.34016-21.25824-41.7664a12.8 12.8 0 0 1 11.81952-13.7088z m114.63936-2.9056a12.8 12.8 0 0 1 23.1808 10.78528l-0.26112 0.60416-0.80128 1.65632c-8.51712 16.90624-24.21248 28.07552-31.4752 31.91552a12.8 12.8 0 0 1-11.97056-22.62784c4.54656-2.4064 15.2448-10.28352 20.54144-20.72576l0.49152-1.01888 0.2944-0.5888z m58.58048-2.4448a12.8 12.8 0 0 1 23.63648 9.84064c-2.85696 6.85824-8.8064 13.55008-13.57824 18.33728a150.56384 150.56384 0 0 1-14.19264 12.49536 12.80512 12.80512 0 0 1-15.56736-20.3264 124.86144 124.86144 0 0 0 11.62752-10.24256c4.58752-4.60288 7.30624-8.25856 8.07424-10.10432z m-128.576-9.8944a12.8 12.8 0 0 1 13.7728 11.74528 21.57824 21.57824 0 0 0 2.6624 8.91136c1.31328 2.33216 2.51904 3.3664 2.43968 3.30496a12.8 12.8 0 0 1-15.57504 20.31616c-5.6192-4.30848-13.8112-14.99136-15.04512-30.50496a12.8 12.8 0 0 1 11.74528-13.7728z m235.03616-61.55264a12.79744 12.79744 0 0 1 15.77984 8.86784c4.51328 16.09472 2.78528 32.61952-0.66048 46.11072-3.24096 12.69504-8.256 23.6928-12.38528 30.71232l-0.81664 1.35168-0.3584 0.5504a12.8 12.8 0 0 1-21.75488-13.43232l0.3328-0.56832 0.57088-0.9472c2.92864-4.992 6.98624-13.73952 9.60768-24.00256 2.80832-11.00032 3.68384-22.62784 0.81408-32.86272a12.8 12.8 0 0 1 8.8704-15.77984z m-48.0128 26.3552a12.8 12.8 0 0 1 15.77984 8.86784c1.42848 5.09184 0.83456 10.42944 0.0896 14.3616-0.80896 4.28032-2.17856 8.74752-3.67616 12.88704-3.00288 8.2944-6.976 16.53504-9.76128 21.68832a12.79744 12.79744 0 1 1-22.51776-12.1728c2.33472-4.32128 5.73184-11.392 8.20736-18.2272 1.23904-3.42784 2.13504-6.48704 2.59584-8.9344 0.52992-2.79552 0.2176-3.392 0.41216-2.69056a12.8 12.8 0 0 1 8.8704-15.77984zM108.54144 619.25376a12.8 12.8 0 1 1 23.58784 9.9456c-16.448 38.99392-10.3168 78.67392-5.568 92.6208a12.8 12.8 0 0 1-24.23296 8.25344c-6.272-18.432-13.2096-64.768 6.21312-110.81984z m45.7472 48.65792a12.8 12.8 0 1 1 23.552 10.02496c-0.8576 2.01728-1.00352 6.43584 1.04448 13.2224 1.8944 6.27712 4.96384 12.27008 7.08352 15.63648a12.79744 12.79744 0 1 1-21.65504 13.64736c-3.12832-4.9664-7.2704-13.04832-9.93792-21.89312-2.51392-8.33792-4.5696-20.10368-0.08704-30.63808z m222.54336-34.3424a12.80512 12.80512 0 0 1 16.04096 8.39424c3.32288 10.62656 1.60512 22.9504-0.66816 32.38912a134.1568 134.1568 0 0 1-7.6928 22.53056l-1.0624 2.2912-0.29952 0.5888a12.80256 12.80256 0 0 1-23.04768-11.06688l0.2688-0.60416 0.81152-1.75104a108.7744 108.7744 0 0 0 6.13376-17.98656c2.02496-8.40192 2.28864-15.01696 1.12384-18.74432a12.80256 12.80256 0 0 1 8.39168-16.04096zM58.03264 554.24256a12.8 12.8 0 0 1 22.17472 12.79488c-6.33856 10.98752-11.12576 30.48192-13.92128 51.80928-2.5728 19.64288-3.22816 38.94272-2.49856 51.06176l0.16128 2.32704 0.0384 0.65792a12.80256 12.80256 0 0 1-11.74784 13.1456 12.80512 12.80512 0 0 1-13.73184-11.0592l-0.06912-0.65536-0.19968-2.74688c-0.86528-14.21056-0.06144-35.24096 2.66496-56.05632 2.86208-21.82912 8.10752-45.64224 17.1264-61.27872z m336.56832 38.88128a12.80512 12.80512 0 0 1 18.09664-0.5504c10.7904 10.15296 16.58624 24.4096 19.73504 36.71296 3.2 12.51072 4.09088 24.70144 3.89888 32.4608a12.8 12.8 0 0 1-25.59488-0.63232c0.13824-5.62688-0.5376-15.45216-3.10528-25.4848-2.61888-10.24-6.79168-19.06176-12.47744-24.41216a12.8 12.8 0 0 1-0.55296-18.09408z m-35.75808-144.62208a12.8 12.8 0 0 1 15.05792-9.17248l0.64 0.1536 2.1248 0.60928c21.85728 6.65088 40.8832 23.872 54.85312 40.46336 14.34624 17.0368 25.13408 35.55328 29.52704 46.86592a12.8 12.8 0 0 1 21.12512-7.00672l0.47872 0.45568 1.46432 1.4976c15.04768 15.76192 27.88352 40.24064 37.31456 63.5136 9.50272 23.44704 16.32256 47.62112 18.45248 63.89504l0.19456 1.5488 0.05888 0.65792a12.8 12.8 0 0 1-25.39776 2.944l-0.09216-0.6528-0.15616-1.26464c-1.75872-13.32992-7.7696-35.26912-16.78336-57.51552-9.08544-22.41792-20.4544-43.21536-32.03584-55.3728l-1.11872-1.152-0.45568-0.47616a12.7488 12.7488 0 0 1-2.26304-3.53024 12.8 12.8 0 0 1-24.27648 2.65216l-0.25088-0.61184-0.63232-1.58464c-3.53024-8.40192-12.38016-23.70304-24.73472-38.3744-12.9152-15.33696-27.968-27.94752-42.65728-32.43776l-1.4208-0.4096-0.62976-0.18944a12.8 12.8 0 0 1-8.38656-15.50592z m101.14048 139.67104a12.8 12.8 0 0 1 18.02496 1.6768c5.77792 6.96576 11.47904 18.09408 16 27.99616a371.91168 371.91168 0 0 1 11.10784 27.25888 12.8 12.8 0 0 1-24.1024 8.6272 346.30144 346.30144 0 0 0-10.2912-25.25184c-4.52096-9.90208-9.03168-18.20672-12.416-22.28736a12.8 12.8 0 0 1 1.6768-18.01984zM197.13536 520.22272a12.8 12.8 0 0 1 13.5808 21.66272l-0.5504 0.36352-1.24416 0.80384c-12.78208 8.46592-23.17312 22.36416-31.03232 37.46304-7.54432 14.49472-12.19328 29.01504-14.27968 38.31296l-0.384 1.78688-0.14848 0.64256a12.8 12.8 0 0 1-25.0496-5.09696l0.11264-0.65024 0.46848-2.2016c2.54208-11.36128 7.93088-28.01408 16.57088-44.61312 8.86528-17.03424 21.76512-35.18464 39.6416-47.01184l1.74592-1.12384 0.56832-0.33792z m181.20448 2.13504a12.8 12.8 0 0 1 16.99328-4.69248l0.57088 0.32512c11.31264 6.80448 22.27968 20.57984 30.78912 33.00352 8.87808 12.96128 16.54016 26.66496 20.94336 35.44832a12.80256 12.80256 0 0 1-22.8864 11.47392c-3.97568-7.92832-11.0592-20.60288-19.17696-32.45568-8.22528-12.0064-16.26112-21.27616-22.28736-25.17248l-0.57856-0.36352a12.8 12.8 0 0 1-4.36736-17.56672z m-87.16032-83.16928a12.79744 12.79744 0 0 1 12.99456 19.08992c1.43616-1.2032 2.89024-2.38848 4.35712-3.54304 4.89984-3.85024 10.20672-7.56992 15.44448-10.38848 4.9152-2.64192 11.23328-5.30688 17.7792-5.30688a12.80256 12.80256 0 0 1 0 25.6c0.1024 0-0.33536-0.00512-1.45152 0.36352-1.08032 0.3584-2.48576 0.96512-4.20352 1.88928-3.46368 1.86368-7.488 4.62336-11.7504 7.97184-8.50944 6.68928-16.84992 14.83776-21.84448 20.23424a12.8 12.8 0 0 1-18.78272-17.3952 234.368 234.368 0 0 1 14.2464-14.02368 12.80512 12.80512 0 0 1-2.27328 0.69888l-1.47456 0.31744c-15.38304 3.4432-35.072 12.00896-53.76 21.93664-19.16416 10.18368-35.99104 21.10208-44.36992 27.72736a12.8 12.8 0 0 1-18.18624-17.7152l-0.42496 0.31232c-16.4992 11.3152-33.6384 28.8384-48.02304 46.5664-14.44608 17.80224-25.21088 34.68288-29.47584 44.13952a12.8 12.8 0 0 1-23.33696-10.52416c5.55008-12.30592 17.8304-31.13472 32.93184-49.74848 15.16544-18.688 34.08384-38.28736 53.42464-51.54816l0.55552-0.35584a12.8 12.8 0 0 1 16.9344 18.57792c10.02496-7.87712 28.1216-19.49696 47.9616-30.03904 19.89888-10.5728 42.84928-20.76416 62.08-24.72192l0.64768-0.1152z m36.66688 83.74016a12.80256 12.80256 0 0 1 14.89408-10.2912c3.69664 0.67584 6.53824 2.51136 8.28416 3.84 1.89696 1.44384 3.58912 3.13856 5.03296 4.75648 2.89024 3.24096 5.71904 7.23968 8.25344 11.1744 5.11232 7.93344 9.94304 17.05984 12.85888 23.0784a12.80256 12.80256 0 0 1-23.03744 11.16416c-2.61888-5.40416-6.9504-13.568-11.3408-20.38272-2.2144-3.44064-4.224-6.17984-5.83936-7.99232a17.92 17.92 0 0 0-1.02656-1.07264 12.8 12.8 0 0 1-8.07936-14.27456z" fill="#000000" p-id="2311"></path><path d="M994.97472 746.11968c25.38496 106.53696-97.87648 136.08704-229.54496 167.45984-131.66848 31.3728-257.94048 60.19328-290.61888-76.95872-25.38496-106.53696 24.32256-270.04928 201.43616-320.88064 168.82944-40.22528 293.34528 123.84256 318.72768 230.37952z" fill="#FCCE80" p-id="2312"></path><path d="M468.38784 850.4064a12.8 12.8 0 0 1 17.52064 4.54144c18.1376 30.83264 37.79584 47.40608 55.71584 55.88224 17.38496 8.22528 34.01728 9.24928 47.6032 7.29088l1.30304-0.19712 0.6528-0.0896a12.80512 12.80512 0 0 1 14.016 10.7008 12.80256 12.80256 0 0 1-9.96608 14.54336l-0.64768 0.12032-1.71008 0.26368c-17.79968 2.56256-39.61856 1.19296-62.20288-9.48992-23.33952-11.04384-46.56384-31.59296-66.82624-66.04032a12.80256 12.80256 0 0 1 4.54144-17.52576z m510.68416-67.136a12.8 12.8 0 0 1 12.8 12.80256l-0.0128 1.344c-0.62976 28.1088-20.928 50.4704-46.91712 67.64544-26.87232 17.75616-63.11424 32.23808-101.69088 43.67872-74.81088 22.18496-161.71008 33.87648-214.6816 34.5856l-5.02016 0.03328-0.6528-0.01536a12.80512 12.80512 0 0 1-12.14464-12.78464 12.80256 12.80256 0 0 1 12.14208-12.78208l0.65792-0.01792 4.7744-0.03328c50.44992-0.68608 134.98368-11.9808 207.64416-33.52832 37.53472-11.13088 71.0272-24.74752 94.85824-40.49408 24.29952-16.05888 35.4432-32.16896 35.4432-47.63136l0.01792-0.66048a12.8 12.8 0 0 1 12.78208-12.14208z m-452.89216 64.46848a12.8 12.8 0 0 1 17.10336 4.27776l0.34048 0.56832c13.98016 24.73216 30.2848 33.32864 45.14048 35.6352 14.76864 2.29632 29.83168-1.34912 42.72384-5.87776l2.5472-0.91904 0.62464-0.21248a12.80512 12.80512 0 0 1 8.81152 24.00256l-0.6144 0.24064-2.78528 1.00352c-14.32064 5.04576-34.24256 10.32192-55.23968 7.05792-22.56384-3.50464-44.60288-16.57088-61.84448-45.48864l-1.65376-2.84928a12.8 12.8 0 0 1 4.84608-17.43872z m125.95712 6.1952a12.8 12.8 0 0 1 16.88832 5.05856l0.31232 0.58368c5.08672 10.048 16.22528 16.12032 20.78464 17.61024a12.8 12.8 0 1 1-7.9488 24.33536c-8.02816-2.624-25.3056-11.53024-34.78528-28.70016l-0.89088-1.68704a12.80256 12.80256 0 0 1 5.63968-17.20064z m57.55392 0.09984a12.8 12.8 0 0 1 17.07776 4.95104c0.08192 0.08704 0.45568 0.4992 1.33376 1.14176 1.3312 0.9728 3.23072 2.048 5.5168 2.944 4.49536 1.7664 8.94976 2.27584 12.27264 1.55904l1.29024-0.32a12.8 12.8 0 0 1 6.84544 24.63232l-0.62976 0.192-0.97792 0.256c-10.12224 2.51904-20.37504 0.5632-28.15744-2.49088-4.12928-1.62304-8-3.71712-11.26912-6.10816-3.05664-2.23488-6.49472-5.38624-8.64512-9.4592a12.80256 12.80256 0 0 1 5.34272-17.29792z m198.80192-99.9296a12.8 12.8 0 0 1 14.44864 10.10688l0.11264 0.64768 0.22528 1.60512c4.4544 33.54112-11.14112 56.46592-28.52864 72.0256-8.66048 7.74912-17.9712 13.89056-25.51296 18.74176-7.78496 5.00992-12.4288 7.94112-14.8864 10.21184l-0.93952 0.90368a12.79488 12.79488 0 0 1-17.62304-0.37888 12.79744 12.79744 0 0 1-0.53248-17.62048l0.45056-0.47872 0.94976-0.91648c4.91776-4.59776 12.45952-9.21344 18.72896-13.248 7.45216-4.79744 15.2704-10.00704 22.29504-16.29184 13.28384-11.88864 22.90944-26.73408 20.34432-48.60928l-0.28416-2.14016-0.08448-0.6528a12.8 12.8 0 0 1 10.83648-13.90592z m-316.736 52.77696a12.80256 12.80256 0 0 1 12.68736 12.23936l0.01024 0.66048 0.01536 0.4352c0.17408 2.28096 1.81248 6.23616 6.03136 11.37152 4.16 5.0688 9.29792 9.41568 12.55168 11.70944a12.79744 12.79744 0 0 1 3.08736 17.83296 12.79744 12.79744 0 0 1-17.83552 3.09248c-4.79744-3.38176-11.72736-9.24928-17.59232-16.38912-5.35296-6.52032-11.5456-16.17664-11.84768-27.18208l-0.01024-1.07008 0.02304-0.66048a12.80256 12.80256 0 0 1 12.87936-12.03968z m198.37184 19.35872a12.8 12.8 0 0 1 25.03936 5.17632l-0.11776 0.65024-0.20736 0.92416c-2.24512 9.47456-8.30976 16.40192-13.78304 20.93568-5.34528 4.4288-11.17696 7.46752-15.53152 9.12384l-0.84992 0.31488-0.62464 0.2048a12.80256 12.80256 0 0 1-8.55552-24.09216l0.61696-0.23808 0.78848-0.30208a32 32 0 0 0 7.82336-4.72064c3.00544-2.49088 4.608-4.89472 5.1584-6.93248l0.09216-0.40448 0.15104-0.64z m-270.38976-105.82784a12.8 12.8 0 0 1 12.72576 12.1984l0.0128 0.66048 0.00768 1.94816c0.26368 20.10624 5.96736 40.01792 13.184 56.73216 7.49056 17.3568 16.1664 30.24384 20.73088 35.42272a12.8 12.8 0 0 1-19.20256 16.93184c-6.74304-7.64928-16.73728-22.99648-25.03168-42.20928-8.0768-18.7136-14.96064-42.05056-15.27808-66.56768l-0.01024-2.37568 0.02048-0.65792a12.8 12.8 0 0 1 12.84096-12.0832z m97.17504-193.65376a12.8 12.8 0 0 1 13.83424 21.5296l-1.23904 0.8576c-12.88192 9.08288-27.776 24.55296-41.22112 40.89344-13.78816 16.75776-25.13664 33.29792-30.33088 42.63168a12.8 12.8 0 0 1-23.5904-9.37472c-0.0896 0.15104-0.17664 0.30208-0.27392 0.45056l-1.01632 1.58976c-10.4448 16.61184-19.17952 38.63296-25.45664 59.84-6.50496 21.98272-9.96608 41.7024-10.27328 52.07296a12.8 12.8 0 0 1-24.28928 5.25568l-0.0256 0.26624c-1.63584 12.55936 0.97792 28.16768 5.96736 44.2368 4.61056 14.85312 10.92864 29.0944 16.44288 40.02304l1.09312 2.14272 0.28672 0.59392a12.8 12.8 0 0 1-22.72512 11.70944l-0.31744-0.58112-1.18016-2.30656c-5.95968-11.80672-12.89728-27.40736-18.04544-43.99104-5.42208-17.46432-9.23904-37.2096-6.90688-55.1296a12.8 12.8 0 0 1 24.14848-4.0576c0.57856-13.57056 4.65152-35.11808 11.27424-57.50016 6.83008-23.0784 16.7808-48.4352 29.54752-68.10368l0.37632-0.54272a12.8 12.8 0 0 1 17.3312-3.2256 12.8 12.8 0 0 1 5.43488 13.88288c6.23616-11.1232 18.48576-28.8 32.76032-46.15168 14.31808-17.40032 31.59808-35.61728 47.83616-46.65344l0.55808-0.3584z m51.10784 276.02944a12.8 12.8 0 0 1 17.2288 5.54752 21.61152 21.61152 0 0 0 5.88288 7.2064c2.10176 1.64096 3.6096 2.13248 3.52512 2.112a12.8 12.8 0 0 1-6.57408 24.7424c-6.84288-1.8176-18.5088-8.53248-25.61024-22.37696a12.8 12.8 0 0 1 5.54752-17.23136z m82.62912-27.1232a12.8 12.8 0 0 1 12.27776 12.65408l-0.01024 0.66048-0.1024 1.83552c-1.36448 18.88256-11.56096 35.2256-16.78848 41.56416a12.8 12.8 0 1 1-19.74784-16.29184c3.27424-3.968 10.11968-15.35232 10.99264-27.02848l0.06656-1.1264 0.04352-0.65792a12.8 12.8 0 0 1 13.26848-11.6096z m101.91872-7.7568a12.80256 12.80256 0 0 1 24.08704 8.58112l-0.2048 0.62464-0.48128 1.3184c-4.72064 12.66176-11.68896 23.30112-15.55968 28.28544l-0.7552 0.95232-0.43008 0.4992a12.8 12.8 0 0 1-19.80672-16.16384l0.40192-0.52224 0.4736-0.59904c2.42688-3.14624 7.65184-11.02592 11.2896-20.34176l0.75008-2.01728 0.23552-0.61696z m-49.24672-18.20928a12.8 12.8 0 0 1 12.8 12.8c0 7.42912-2.9184 15.89504-5.48352 22.14656a149.9392 149.9392 0 0 1-8.29952 16.99072 12.8 12.8 0 0 1-22.18496-12.77952 125.21472 125.21472 0 0 0 6.79936-13.92384c2.46528-6.016 3.56864-10.43456 3.56864-12.43392a12.8 12.8 0 0 1 12.8-12.8z m135.16544-116.544a12.8 12.8 0 0 1 17.9072 2.64192c14.81728 19.94496 30.40512 47.14752 41.97632 74.54976 11.39712 26.99008 19.70944 56.06144 18.09664 79.1552a12.8 12.8 0 0 1-25.536-1.78432c1.1776-16.87808-5.13536-41.33888-16.14336-67.40992-10.83648-25.66144-25.43616-51.0592-38.94272-69.24288a12.8 12.8 0 0 1 2.64192-17.90976z m-45.50656 17.74848a12.80256 12.80256 0 0 1 17.27744-3.51488l0.54784 0.36608c16.30464 11.40736 32.21504 34.23744 42.03264 58.43712 9.6128 23.69024 14.87872 52.38784 5.68064 76.16l-0.448 1.1264-0.26624 0.60416a12.8 12.8 0 0 1-23.65952-9.68192l0.22784-0.61696 0.54528-1.408c5.35808-14.75584 2.71872-35.55584-5.80096-56.55552-8.46848-20.87168-21.31456-38.37696-31.96672-46.3488l-1.02144-0.7424a12.8 12.8 0 0 1-3.1488-17.82528z m-65.83552 47.5008a12.8 12.8 0 0 1 17.55648 1.61536l0.41984 0.50688c3.27424 4.15232 4.77952 9.30816 5.6064 13.2224 0.89856 4.2624 1.34912 8.91136 1.55648 13.30944 0.41728 8.81408-0.08448 17.94816-0.67584 23.77216a12.79744 12.79744 0 1 1-25.46688-2.57792c0.49408-4.88704 0.91392-12.71808 0.57088-19.9808-0.17408-3.64032-0.5248-6.8096-1.0368-9.24672-0.5888-2.78528-1.10336-3.21536-0.6528-2.64448a12.8 12.8 0 0 1 2.12224-17.97632z m34.19392-42.78784a12.8 12.8 0 0 1 17.97632 2.12224c10.35264 13.12512 15.11168 29.04064 17.11616 42.82112 1.88672 12.9664 1.48224 25.04704 0.36864 33.11616l-0.23296 1.5616-0.12032 0.64768a12.8 12.8 0 0 1-25.24416-4.04224l0.08704-0.65024 0.16128-1.09568c0.78592-5.7344 1.16992-15.36768-0.35328-25.85088-1.63584-11.23328-5.29664-22.30528-11.88096-30.65088a12.80256 12.80256 0 0 1 2.12224-17.97888z m-307.456-5.2992a12.8 12.8 0 0 1 20.86144 14.77632l-0.36864 0.54784-0.8448 1.22112c-8.54016 12.61312-10.92352 25.0752-10.1376 35.07456 0.86016 10.89024 5.26336 17.57952 8.15872 19.7248a12.8 12.8 0 1 1-15.23968 20.5696c-10.63936-7.87968-17.19808-22.56896-18.43712-38.28224-1.24416-15.77728 2.65728-34.00192 14.44608-51.42272l1.1648-1.68192 0.3968-0.52736z m224.78336 9.01376a12.80512 12.80512 0 0 1 18.0352 1.58208c7.1552 8.53248 10.304 20.5696 11.83232 30.15936 1.40544 8.80896 1.72544 17.50272 1.55904 23.75424l-0.09728 2.52416-0.05376 0.65792a12.8 12.8 0 0 1-25.53344-1.3568l0.02048-0.65792 0.0768-1.93024c0.12288-4.8384-0.128-11.91424-1.25184-18.96192-1.35936-8.53504-3.6608-14.7456-6.1696-17.73824a12.80256 12.80256 0 0 1 1.58208-18.03264z m0.8576-44.17024a12.80512 12.80512 0 0 1 16.49408-7.4624c13.8624 5.22496 24.69376 16.15872 32.32768 26.30656 7.76448 10.31936 13.27104 21.23264 16.07936 28.46976a12.8 12.8 0 0 1-23.86944 9.25184c-2.0352-5.248-6.4384-14.05696-12.66432-22.33344-6.35392-8.44544-13.59872-14.98624-20.90496-17.73824a12.8 12.8 0 0 1-7.4624-16.49408z m58.45504-29.70368a12.80256 12.80256 0 0 1 17.28512-5.37856c8.01024 4.20864 17.55136 12.29312 25.53088 19.69664 8.2816 7.68256 16.0512 15.744 20.73344 20.89216a12.8 12.8 0 0 1-18.93376 17.2288 346.30912 346.30912 0 0 0-19.21024-19.3536c-7.97952-7.40352-15.3344-13.3376-20.02688-15.80288a12.8 12.8 0 0 1-5.37856-17.28256z m-112.22272-78.6944a12.8 12.8 0 0 1 14.12352-11.32544c113.36704 12.4672 176.6144 94.42304 193.33376 123.4304l0.76032 1.33888 0.3072 0.58624a12.8 12.8 0 0 1-22.31808 12.46464l-0.33792-0.56832-1.38752-2.40128c-15.67232-26.33472-72.78848-98.36288-173.1584-109.4016a12.80512 12.80512 0 0 1-11.32288-14.12352z m11.55328 49.32096a12.8 12.8 0 0 1 13.88288-10.86464l0.6528 0.08192c13.056 1.93536 28.47744 10.43456 41.10592 18.63168 13.18144 8.55296 25.52064 18.26048 32.96256 24.67584a12.8 12.8 0 0 1-16.7168 19.38944c-6.71744-5.79072-18.12992-14.7712-30.17984-22.592-12.20864-7.92064-23.19104-13.3888-30.25152-14.6688l-0.67072-0.11264a12.8 12.8 0 0 1-10.78528-14.5408z m-36.60288 4.71296c3.6736-0.79616 7.00416-0.19456 9.1264 0.36096 2.304 0.6016 4.5184 1.51552 6.47168 2.45504 3.91424 1.87904 8.064 4.48256 11.9168 7.1424 7.7696 5.36064 15.73632 11.92704 20.74112 16.36096a12.8 12.8 0 0 1-16.97792 19.16416c-4.49536-3.98336-11.63264-9.856-18.304-14.45888-3.3664-2.32192-6.272-4.08064-8.4608-5.1328a17.3824 17.3824 0 0 0-1.35936-0.59392 12.8 12.8 0 0 1-3.15392-25.29792z m2.14016-52.93568a12.8 12.8 0 1 1 9.82528 23.63904c-5.61664 2.33216-21.03552 9.6-35.63264 18.048-7.29856 4.22656-14.05952 8.55808-19.17952 12.54144-2.56 1.99168-4.48768 3.7248-5.80864 5.14816-1.44128 1.55392-1.5616 2.10432-1.40032 1.66656a12.8 12.8 0 1 1-24.02048-8.84992l0.29696-0.76544c1.55392-3.78368 4.04736-6.97344 6.3488-9.45664 2.57792-2.78016 5.65248-5.4528 8.86528-7.95136 6.42816-4.99712 14.30528-9.99168 22.07232-14.48704 15.53408-8.99072 31.95648-16.7552 38.63296-19.5328z" fill="#000000" p-id="2313"></path><path d="M796.82304 485.10208c-37.40416 111.7568-207.24736 118.7968-345.36704 72.57088-138.11968-46.22592-240.97536-135.25504-192.82432-279.12448 37.4016-111.7568 175.80288-232.85248 366.5024-178.55232 177.1008 59.27168 209.09056 273.35168 171.68896 385.10592z" fill="#FCD89D" p-id="2314"></path><path d="M322.49344 474.00704a12.80256 12.80256 0 0 1 17.87136-2.89536c44.3136 31.95392 121.54112 66.01728 199.00928 82.71104 38.63808 8.32768 76.75648 12.20096 110.42304 9.58208 33.76128-2.62912 62.00064-11.6992 82.10944-28.23168l0.51968-0.40448a12.8 12.8 0 0 1 15.73888 20.18048l-1.20576 0.97792c-25.45152 20.38016-58.97472 30.17984-95.17568 32.9984-36.86912 2.86976-77.57824-1.408-117.80352-10.07616-80.26112-17.29536-160.9088-52.59264-208.5888-86.976a12.79744 12.79744 0 0 1-2.89792-17.86624z m481.5104-82.72896a12.8 12.8 0 0 1 13.13024 12.45696c1.51808 57.63328-3.88608 97.27744-34.01472 138.75712a12.8 12.8 0 0 1-20.7104-15.04512c25.2672-34.78784 30.59456-67.66592 29.13536-123.03616a12.8 12.8 0 0 1 12.45952-13.1328z m-135.38304 99.45088a12.80256 12.80256 0 0 1 22.21312 12.66176l-0.31232 0.58112-0.86528 1.48992c-18.35264 30.92224-46.68416 39.63392-71.67744 41.05728-12.48768 0.70912-24.48128-0.35328-34.17344-1.32352-9.93024-0.99328-16.0256-1.65888-19.80416-1.3824l-0.72448 0.06912-0.65792 0.05888a12.8 12.8 0 0 1-2.96448-25.39264l0.65024-0.09472 1.3952-0.13568c7.12192-0.55808 16.50688 0.59136 24.65536 1.40544 9.59488 0.96 19.85024 1.82528 30.16704 1.23648 19.90144-1.13152 38.62528-7.47008 51.16672-28.64896l0.59136-1.01632 0.34048-0.56576z m73.29536-101.23776a12.80512 12.80512 0 0 1 15.81824 7.79008l0.20992 0.62464c6.31296 20.28032 4.8 49.96608-2.87232 76.83328-7.51104 26.30656-22.03648 53.74464-45.48096 67.42016l-1.1264 0.64-0.58112 0.30464a12.8 12.8 0 1 1-12.4544-22.32832l0.56832-0.33536 1.43104-0.83712c14.6816-8.98048 26.33728-28.46464 33.02656-51.89376 6.65344-23.29344 7.32928-46.79424 3.43552-60.86144l-0.39168-1.3312a12.8 12.8 0 0 1 8.41728-16.0256z m-309.58592 80.16896a12.8 12.8 0 0 1 25.39264 2.76992c0.08704 0.19712 0.20736 0.45824 0.38144 0.7808 0.83456 1.55648 2.3424 3.648 4.45184 5.82912 4.6208 4.7872 9.40288 7.31136 11.81696 7.6288a12.80256 12.80256 0 0 1-3.328 25.38496c-10.77504-1.41312-20.5824-8.68608-26.90304-15.22944-3.36128-3.4816-6.4128-7.4368-8.59136-11.4944-1.8944-3.52768-4.34688-9.344-3.22048-15.66976z m197.39904-8.96512a12.8 12.8 0 0 1 13.47584 21.72928l-0.55296 0.36096-1.28 0.77824c-12.38528 7.43168-25.34912 11.67616-31.8976 13.25568l-1.25952 0.28672-0.64512 0.12544a12.80256 12.80256 0 0 1-5.3888-24.99328l0.64-0.1536 0.82688-0.192c4.26496-1.04192 14.09024-4.20352 23.50592-9.65888l2.00704-1.20576 0.56832-0.3328z m-92.30336 7.16544a12.8 12.8 0 0 1 16.36352 19.64544l-0.49408 0.4352-0.77312 0.62464c-8.0256 6.30272-17.59744 8.02816-25.14432 8.17408-7.3856 0.1408-14.272-1.18784-18.98496-2.67008l-0.91392-0.29952-0.61952-0.22528a12.8 12.8 0 0 1 8.22016-24.21248l1.55648 0.4864c2.38336 0.68608 6.22592 1.40032 10.25024 1.32352 4.3904-0.08448 7.6032-1.07008 9.63072-2.56256l0.39168-0.3072 0.51712-0.41216z m-293.9904-164.77696a12.8 12.8 0 0 1 11.86816 13.03296l-0.03072 0.66048-0.26112 4.00896c-2.4064 41.05728 4.84608 69.78304 15.55456 89.72288 10.68544 19.89888 25.22112 31.82848 38.7072 38.70208l1.30304 0.65024 0.58368 0.30208a12.80256 12.80256 0 0 1-11.22048 22.97344l-0.59904-0.27392-1.7024-0.85248c-17.63584-8.99328-36.22656-24.43264-49.62816-49.39264-13.38112-24.91904-21.17888-58.5472-18.55744-103.32672l0.28672-4.36736 0.06656-0.65792a12.8 12.8 0 0 1 13.62688-11.18208z m467.904 69.16096a12.8 12.8 0 0 1 12.89984 12.6976c0.1408 17.78432-6.31296 34.23232-13.73696 47.10656-6.97856 12.1088-15.32416 21.94432-21.59872 27.93472l-1.2288 1.14688-0.49664 0.43264a12.8 12.8 0 0 1-17.24928-18.87232l0.47616-0.45568 0.87808-0.82432c4.544-4.34688 11.33312-12.24704 17.03936-22.14656 6.11328-10.60352 10.40896-22.49728 10.3168-34.11968a12.8 12.8 0 0 1 12.70016-12.89984zM384.6144 408.9472a12.80256 12.80256 0 0 1 25.12384 4.93312c-2.23488 11.3792 2.56256 23.36768 5.67296 28.51328l0.59648 0.9344a12.80256 12.80256 0 0 1-20.80768 14.90176l-0.384-0.5376c-5.18912-7.65952-14.38208-27.45856-10.2016-48.74496z m195.74272 5.42208a12.8 12.8 0 0 1 20.07296 15.88736c-4.84352 6.12096-12.86144 11.21536-19.21024 14.75072a163.08736 163.08736 0 0 1-16.51456 7.95136l-1.79968 0.72448-0.61952 0.22528a12.8 12.8 0 0 1-9.33632-23.80288l0.60672-0.25344 1.45408-0.58624a137.49504 137.49504 0 0 0 13.76-6.62784c6.13632-3.41504 10.15296-6.45888 11.58656-8.2688z m73.15968-29.04576a12.80256 12.80256 0 0 1 12.87936 12.04224l0.02304 0.65792c0.04352 5.49888-2.03776 10.71872-3.92448 14.5408-2.04544 4.13952-4.73088 8.31488-7.46752 12.13696-5.48352 7.6544-11.97056 14.976-16.33536 19.45856a12.8 12.8 0 1 1-18.34496-17.85344c3.6992-3.8016 9.30048-10.1376 13.86752-16.512 2.28864-3.19488 4.12416-6.1312 5.32992-8.57088 1.36192-2.75968 1.26976-3.59168 1.27488-2.99776a12.8 12.8 0 0 1 12.6976-12.9024z m-135.29088 14.34112a12.8 12.8 0 0 1 19.37152 16.68608l-0.41984 0.512-1.29792 1.45664c-12.71552 13.84704-30.53824 20.73088-39.79264 23.03488l-1.78688 0.4096-0.64768 0.12032a12.8 12.8 0 0 1-5.25312-25.02144l0.64-0.15104 1.1776-0.27904c6.1568-1.56928 18.62912-6.5664 26.74432-15.36l0.82176-0.9216 0.44288-0.4864z m-236.99968-79.616a12.8 12.8 0 1 1 25.32096 3.76064c-4.5056 30.36928 3.79648 48.85248 15.29344 61.05344 11.36128 12.0576 26.9568 19.17184 41.10848 24.0256l2.80832 0.93952 0.61952 0.22016a12.8 12.8 0 0 1-7.95904 24.29696l-0.63232-0.18944-3.04384-1.01632c-15.56736-5.3248-35.9168-14.144-51.5328-30.72-17.28256-18.3424-27.55072-44.85632-21.98272-82.37056z m151.13216 56.60416a12.8 12.8 0 0 1 25.2544 4.14464l-0.10496 0.64768a23.86432 23.86432 0 0 0 0.25856 10.37056c0.34816 1.37472 0.7808 2.50368 1.16992 3.3408 0.2048 0.44288 0.37888 0.76032 0.49408 0.95488l0.14592 0.23808a12.8 12.8 0 1 1-19.9424 16.03072l-0.41472-0.512c-4.32384-5.6704-9.60256-18.21696-7.12448-33.70752l0.26368-1.50784z m205.62432-56.66304a12.8 12.8 0 0 1 13.27872 12.3008c0.44544 11.74272-4.77696 23.83104-9.83808 32.90112a141.09952 141.09952 0 0 1-14.40768 20.91264l-1.75616 2.04288-0.44544 0.48128a12.8 12.8 0 0 1-19.1616-16.92416l0.4224-0.50432 1.36192-1.5872a115.65056 115.65056 0 0 0 11.63008-16.896c4.52864-8.11264 6.77888-15.0272 6.61248-19.45088a12.8 12.8 0 0 1 12.30336-13.27616z m-276.77696 0.08704a12.8 12.8 0 0 1 19.91424 16.02816l-0.3968 0.5248-0.30464 0.41216c-1.50528 2.2272-2.73152 6.84544-2.53184 14.05184 0.17152 6.24896 1.36448 12.5312 2.5216 16.80128l0.48896 1.70496a12.8 12.8 0 0 1-24.256 8.1536l-0.20992-0.62464c-1.8432-5.98784-3.86304-15.48288-4.13696-25.32864-0.24832-9.00608 0.87296-21.07136 7.7952-30.33344l0.68864-0.88832 0.42752-0.50176z m331.8784-194.68032a12.8 12.8 0 0 1 17.58464-1.2544l0.49664 0.43264 2.21696 2.048c93.11232 86.912 96.81152 209.84832 93.39392 246.52288a12.8 12.8 0 1 1-25.48736-2.37312c3.10016-33.26464-0.69376-146.37568-85.37344-225.4336l-2.01472-1.86112-0.47616-0.45568a12.8 12.8 0 0 1-0.34048-17.6256z m45.36576 172.17792a12.80256 12.80256 0 0 1 16.67584 5.72928l0.28416 0.59136c4.0064 8.768 6.79424 21.84192 8.71168 33.4208a397.61664 397.61664 0 0 1 3.86048 31.38816 12.8 12.8 0 0 1-25.51808 2.01728 371.19488 371.19488 0 0 0-3.59936-29.22496c-1.79456-10.84416-3.9936-20.34688-6.27968-25.90464l-0.45568-1.05472a12.8 12.8 0 0 1 6.32064-16.96256z m-69.79328-14.21568a12.8 12.8 0 0 1 17.61024 4.1984c8.25344 13.42464 10.2656 29.6576 10.05824 43.25632-0.19712 12.93824-2.432 24.99328-4.6848 32.96768l-0.45056 1.53856a12.80256 12.80256 0 0 1-24.67584-6.78144l0.17408-0.63488c1.7664-5.83424 3.86816-16.26624 4.03968-27.47904 0.17408-11.4176-1.67936-21.9904-6.272-29.45792a12.8 12.8 0 0 1 4.20096-17.60768zM356.59008 199.65952a12.80256 12.80256 0 0 1 19.99872 15.98464c-13.99296 17.50528-22.77888 38.89664-27.89632 58.46016-5.14304 19.67104-6.30272 36.40832-5.82656 43.93216a12.8 12.8 0 0 1-25.55136 1.61536c-0.68352-10.84416 0.9472-30.36416 6.61248-52.02432 5.696-21.7728 15.74144-46.7968 32.66304-67.968z m-61.2864-21.59104a12.80256 12.80256 0 0 1 19.82976 16.192c-9.78176 11.97824-17.43616 29.80096-23.1296 49.32096-5.27616 18.08128-8.59392 36.6208-10.53184 51.26144l-0.36864 2.87488-0.09728 0.6528a12.8 12.8 0 0 1-25.3696-3.15648l0.064-0.65792 0.39168-3.04384c2.05312-15.53152 5.5936-35.42528 11.33312-55.10144 6.0544-20.75392 14.8864-42.43456 27.8784-58.3424z m376.68096 27.20256a12.80512 12.80512 0 0 1 18.10176 0.41472c9.71008 10.1632 17.20832 27.42528 22.58944 42.79296 4.89216 13.9776 8.6528 28.27008 10.92352 38.55872l0.88576 4.15232a12.8 12.8 0 0 1-24.93952 5.74464l-0.14848-0.64512c-1.91232-9.40544-5.7344-24.64768-10.88256-39.34976-5.35808-15.3088-11.40736-27.776-16.94208-33.56928a12.80512 12.80512 0 0 1 0.41216-18.0992z m-52.81024-14.6176a12.8 12.8 0 0 1 16.50944-6.19008l0.59904 0.27904c3.40992 1.65632 5.71392 4.20608 7.11424 6.0288 1.51296 1.9712 2.76736 4.15232 3.8016 6.21568 2.06848 4.12928 3.87328 9.03936 5.4016 13.83424 2.69312 8.45568 4.90752 17.79968 6.31296 24.73216l0.55552 2.81344a12.80512 12.80512 0 0 1-25.01632 5.40672l-0.13824-0.64512c-1.21088-6.38464-3.4304-16.14336-6.10304-24.53504-1.34912-4.23168-2.69056-7.7184-3.90656-10.14272a18.368 18.368 0 0 0-0.95232-1.71008 12.8 12.8 0 0 1-4.17792-16.08704z m-167.60576-28.87936a12.8 12.8 0 0 1 7.07072 24.56832l-0.6272 0.19968-1.55904 0.46592c-15.95136 4.95872-26.4448 13.96992-32.51456 23.04-6.58176 9.83552-7.37536 18.6368-6.22592 22.71232a12.80256 12.80256 0 0 1-24.64 6.94784c-3.78368-13.42208 0.25344-29.94432 9.5872-43.89376 9.35168-13.97248 24.68352-26.56 46.17216-33.24672l2.10176-0.6272 0.63488-0.1664z m-16.1408-70.76608a12.8 12.8 0 0 1 10.3936 23.38816l-1.93536 0.93696c-20.03968 9.89952-41.92768 26.34752-61.03552 43.54816-19.76832 17.79456-35.50208 35.42784-42.51136 45.888l-0.37888 0.5376a12.80256 12.80256 0 0 1-20.88704-14.78912l0.83712-1.23136c8.91648-12.89472 25.9072-31.5136 45.81632-49.4336 20.59264-18.5344 45.37856-37.29408 69.09952-48.57344l0.6016-0.27136z m145.344-14.90688a12.8 12.8 0 0 1 0.56832 25.55904l-0.65536 0.03328c-17.53344 0.39168-41.5232 6.31808-64.69376 14.17216-23.00672 7.80032-43.71968 16.98816-54.37696 22.99904l-0.58368 0.3072a12.8 12.8 0 0 1-11.99104-22.60736l2.45248-1.34912c12.80512-6.89408 33.79712-15.97184 56.27904-23.59296 23.81568-8.0768 50.8032-15.04 72.34048-15.52128h0.66048z m13.28128 31.50336c8.9216-0.8192 19.15136-0.6912 28.9792-0.13824 19.65312 1.10336 39.33696 4.00896 47.09888 5.57312a12.8 12.8 0 1 1-5.056 25.09568c-6.53056-1.31584-25.00352-4.07296-43.47648-5.11232-9.23648-0.51712-18.06336-0.58112-25.2032 0.0768-3.56864 0.32768-6.42816 0.80896-8.56064 1.38752-2.27584 0.6144-2.92864 1.13152-2.78272 1.01632a12.8 12.8 0 0 1-15.86944-20.08832c3.69152-2.9184 8.0768-4.58752 11.95776-5.63968 4.02688-1.09056 8.45056-1.76128 12.91264-2.17088z" fill="#000000" p-id="2315"></path></svg>