<?xml version="1.0" standalone="no"?><!DOCTYPE svg PUBLIC "-//W3C//DTD SVG 1.1//EN" "http://www.w3.org/Graphics/SVG/1.1/DTD/svg11.dtd"><svg t="1755996603785" class="icon" viewBox="0 0 1024 1024" version="1.1" xmlns="http://www.w3.org/2000/svg" p-id="14460" xmlns:xlink="http://www.w3.org/1999/xlink" width="64" height="64"><path d="M900.266667 938.666667H123.733333c-21.333333 0-38.4-17.066667-38.4-38.4v-21.333334c0-8.533333 0-42.666667 21.333334-81.066666 12.8-25.6 34.133333-42.666667 59.733333-59.733334 29.866667-17.066667 68.266667-34.133333 110.933333-38.4 0 0 34.133333-4.266667 64-12.8 29.866667-8.533333 42.666667-12.8 46.933334-17.066666v-25.6c-4.266667-55.466667-34.133333-85.333333-59.733334-110.933334-8.533333-8.533333-17.066667-17.066667-25.6-29.866666-29.866667-38.4-29.866667-81.066667-34.133333-89.6 0-21.333333 8.533333-34.133333 17.066667-42.666667-8.533333-38.4-8.533333-89.6 0-123.733333 4.266667-51.2 46.933333-89.6 51.2-93.866667l4.266666-4.266667V128c0-8.533333 8.533333-29.866667 38.4-38.4 8.533333-4.266667 17.066667-4.266667 25.6-4.266667h68.266667c162.133333 12.8 221.866667 72.533333 230.4 76.8 17.066667 17.066667 25.6 38.4 34.133333 64 0 8.533333 4.266667 12.8 4.266667 21.333334 4.266667 34.133333 4.266667 64 4.266667 89.6 0 12.8 0 21.333333-4.266667 34.133333 4.266667 4.266667 8.533333 12.8 12.8 21.333333 0 4.266667 4.266667 12.8 4.266667 21.333334 0 4.266667-4.266667 51.2-34.133334 93.866666-8.533333 8.533333-12.8 17.066667-25.6 29.866667-25.6 29.866667-55.466667 59.733333-59.733333 110.933333v25.6c4.266667 4.266667 17.066667 8.533333 46.933333 17.066667 29.866667 8.533333 59.733333 12.8 59.733334 12.8 46.933333 8.533333 85.333333 21.333333 115.2 42.666667 25.6 17.066667 46.933333 38.4 59.733333 59.733333 21.333333 38.4 21.333333 72.533333 21.333333 81.066667v17.066666c-4.266667 17.066667-21.333333 34.133333-42.666666 34.133334zM128 896h768v-12.8c0-4.266667 0-29.866667-17.066667-55.466667-8.533333-17.066667-25.6-34.133333-46.933333-46.933333-25.6-17.066667-59.733333-25.6-98.133333-34.133333-4.266667 0-34.133333-4.266667-64-12.8-46.933333-12.8-72.533333-25.6-76.8-42.666667v-4.266667-42.666666c4.266667-68.266667 42.666667-106.666667 68.266666-136.533334 8.533333-8.533333 12.8-17.066667 21.333334-25.6 21.333333-29.866667 25.6-68.266667 25.6-68.266666v-4.266667c0-4.266667-4.266667-4.266667-4.266667-8.533333l-4.266667-4.266667c-8.533333-8.533333-4.266667-17.066667-4.266666-21.333333 4.266667-12.8 4.266667-25.6 4.266666-38.4 0-21.333333 0-51.2-4.266666-81.066667 0-4.266667 0-8.533333-4.266667-17.066667-4.266667-17.066667-12.8-34.133333-25.6-46.933333 0 0-51.2-51.2-200.533333-64H388.266667S384 128 384 132.266667s0 4.266667 4.266667 8.533333c0 4.266667 4.266667 12.8 0 17.066667 0 0 0 4.266667-4.266667 4.266666-4.266667 12.8-12.8 21.333333-17.066667 25.6 0 0-34.133333 29.866667-34.133333 64-4.266667 34.133333-4.266667 85.333333 0 119.466667 0 4.266667 4.266667 12.8 0 21.333333 0 4.266667-4.266667 4.266667-4.266667 8.533334-8.533333 4.266667-12.8 4.266667-12.8 12.8 0 0 4.266667 34.133333 25.6 68.266666 4.266667 8.533333 12.8 17.066667 21.333334 25.6 25.6 29.866667 64 68.266667 68.266666 136.533334v42.666666s0 4.266667-4.266666 4.266667c0 12.8-25.6 29.866667-76.8 42.666667-34.133333 8.533333-64 12.8-68.266667 12.8-38.4 4.266667-68.266667 17.066667-93.866667 34.133333-21.333333 12.8-34.133333 29.866667-46.933333 46.933333-12.8 25.6-12.8 51.2-12.8 51.2v17.066667zM729.6 366.933333z" p-id="14461" fill="#111"></path></svg>