<?xml version="1.0" standalone="no"?><!DOCTYPE svg PUBLIC "-//W3C//DTD SVG 1.1//EN" "http://www.w3.org/Graphics/SVG/1.1/DTD/svg11.dtd"><svg t="1754960229644" class="icon" viewBox="0 0 1024 1024" version="1.1" xmlns="http://www.w3.org/2000/svg" p-id="2131" xmlns:xlink="http://www.w3.org/1999/xlink" width="32" height="32"><path d="M958.43584 934.21824c0 41.00096-198.2848 74.24-442.88 74.24-244.59776 0-442.88-33.23904-442.88-74.24s198.28224-74.24 442.88-74.24c244.5952 0 442.88 33.23904 442.88 74.24z" fill="#D8BFA8" p-id="2132"></path><path d="M361.95584 355.44576c0-35.71456 27.456-55.39584 54.02112-56.18176 13.27872-0.39168 27.05664 3.81952 37.62944 13.5168 10.7648 9.87392 17.14944 24.4608 17.14944 42.66752 0 1.94304 0.38144 6.43584 1.18272 13.94944 0.77568 7.296 1.8304 16.4352 3.03872 27.48672 2.39616 21.90592 5.28896 50.3296 7.21664 81.62304 3.77344 61.22752 3.97824 134.89152-11.15904 192.66048l-0.73216 2.74176c-3.776 13.8368-4.06528 32.26624-2.18368 53.96736 1.8688 21.5296 5.72416 44.92288 9.48992 68.46208 3.72224 23.24992 7.3728 46.73792 8.50176 67.42016 1.06752 19.58656 0.06144 38.95808-7.03232 53.73952l-0.70912 1.41568c-17.5232 33.8688-71.7824 34.61888-92.11136-5.96224l-0.93952-1.96352c-13.77792-30.00832-29.92896-76.53888-41.856-124.89472-11.86816-48.12544-19.92704-99.51488-16.58624-138.78272l0.37632-4.28288c4.04736-44.37504 12.63872-93.06368 20.15744-141.26336 7.8208-50.13248 14.54592-100.04736 14.54592-146.31936z m25.6 0c0 48.43264-7.01952 100.06528-14.85056 150.26688-7.64416 48.9984-16.01024 96.3712-19.95264 139.5968l-0.36864 4.17024c-2.97728 35.01312 4.25216 83.11808 15.93344 130.4832 11.62496 47.13728 27.29472 92.09088 40.26624 120.34304l0.54272 1.14176c11.73248 23.54688 39.4368 19.37152 46.50752 5.70368l0.40192-0.8064c4.06272-8.512 5.54752-22.2208 4.51328-41.19296-1.04192-19.1232-4.45696-41.28-8.2176-64.76544-3.712-23.19872-7.75168-47.63904-9.71776-70.2976-1.94816-22.4896-2.00704-44.60288 2.99264-62.92224l0.6784-2.5344c14.02112-53.53728 14.10816-123.70944 10.35776-184.54784-1.89184-30.70464-4.73344-58.66752-7.11168-80.41472-1.18016-10.7776-2.27584-20.28288-3.05152-27.56096-0.75008-7.05536-1.32352-13.06368-1.32352-16.66048 0-11.95008-4.01664-19.3664-8.85248-23.80288-5.02784-4.61056-12.04992-7.0144-19.5712-6.79168-15.03232 0.44544-29.17632 10.9184-29.17632 30.592z" fill="#000000" p-id="2133"></path><path d="M358.95808 641.8048c-4.92032 72.80384 23.81056 195.03104 44.64384 252.1344 12.04736 33.01888 44.83328 30.90432 54.56384 7.23968 18.85184-45.84448-20.71808-174.63808-7.04512-237.67296 23.81056-109.78048 0-287.10656 0-308.82304 0-59.11296-64.80384-54.28736-64.80384 0 0 92.82304-21.40928 199.05536-27.35872 287.12192z" fill="#E5D8BF" p-id="2134"></path><path d="M350.72512 646.21824c-4.20096 65.12384 27.01056 188.28032 44.79488 239.36 10.28352 29.53728 35.2128 33.96864 43.52 12.8 16.09216-41.00608-23.3984-177.14944-11.72736-233.536 20.3264-98.2016 0-256.82176 0-276.24448 0-52.87936-40.5632-57.18016-40.5632-8.61952 0 83.03104-30.94528 187.46368-36.02432 266.24z" fill="#FBF1DE" p-id="2135"></path><path d="M644.74624 144.32768c24.9728-1.7408 54.03136 9.53088 70.17216 38.73792l0.83968 1.6c4.07808 8.18432 6.41536 19.10784 7.83872 30.9632 1.56416 13.00736 2.18112 28.608 2.07872 45.92384-0.2048 34.65984-3.29216 77.248-7.95136 121.83552-9.03168 86.42304-24.08448 181.39136-36.13952 242.85696l-1.15712 5.84448c-13.98784 69.94432-32.14336 192.50176-17.81248 288.72448l0.15104 1.13408c1.35168 11.6736-3.456 21.78304-11.1104 28.86656-7.6672 7.0912-18.14272 11.2512-29.06368 12.44928-21.83168 2.3936-47.77728-6.74048-64.6016-32.51456l-0.79616-1.2416c-3.92192-6.23872-6.6176-15.25504-8.67584-24.86528-2.14784-10.01728-3.89888-22.19264-5.29408-35.77856-2.7904-27.2-4.22656-60.88704-4.29568-95.95136-0.13824-69.71392 5.12768-146.88768 16.7424-190.17216l1.27744-4.90752c13.0688-51.81696 22.5152-137.61536 28.7232-216.61696 6.38976-81.30048 9.24416-153.8816 9.24416-171.9552 0-28.36992 26.0736-43.27424 49.8304-44.93312z m-24.2304 44.93056c0 19.0464-2.91072 92.38784-9.32096 173.96224-6.29248 80.05888-16.05888 169.53344-30.12608 223.60576l-0.67328 2.54976c-10.67776 39.79776-16.00512 114.08128-15.86688 183.488 0.06656 34.49856 1.4848 67.28704 4.16256 93.38624 1.34144 13.06624 2.97728 24.24576 4.85888 33.02912 1.96864 9.1904 3.94496 14.42048 5.31968 16.60928l1.08032 1.65888c11.32288 16.73984 27.41248 21.632 39.84896 20.26752 6.58944-0.72192 11.58912-3.1232 14.47424-5.79072 2.48064-2.29632 3.3024-4.5696 3.07968-6.96064l-0.05888-0.47872c-15.0272-100.89984 3.96288-227.17184 18.03008-297.51552l1.14432-5.7728c11.90912-60.74112 26.84928-154.944 35.79648-240.57088 4.6208-44.2112 7.61344-85.86496 7.81056-119.32416 0.09728-16.7424-0.50688-31.17312-1.89184-42.72128-1.344-11.16672-3.29472-18.44992-5.27616-22.47168l-0.39424-0.76032c-10.7392-19.4304-29.6832-26.71872-45.98784-25.58208-17.5232 1.22368-26.0096 10.63936-26.0096 19.392z" fill="#000000" p-id="2136"></path><path d="M660.98688 628.43904c-11.80928 70.1184-27.44576 194.49088-15.08864 293.0176 1.44128 11.4816-51.12832 33.70752-68.96896 0-17.84064-33.70496-18.7648-253.47328 0-336.52224C600.63744 480.01024 620.8 225.37728 620.8 188.27008c0-37.1072 47.72864-48.62208 70.35904 0 22.6304 48.62464-9.69984 318.60992-30.17216 440.16896z" fill="#E5D8BF" p-id="2137"></path><path d="M631.04 620.61824c-8.91392 70.12096-27.24608 183.07584-17.92 281.6 2.78528 29.42976-25.6256 44.78464-43.51744 0-13.46304-33.70496-5.0816-231.82848 9.08288-314.88 17.89184-104.9216 43.39712-361.9584 43.39712-399.06816 0-37.1072 25.73312-48.62208 42.81344 0 17.08032 48.62464-18.40384 310.79168-33.856 432.34816z" fill="#FBF1DE" p-id="2138"></path><path d="M209.80992 324.01408c-3.264-5.0304-9.024-9.9072-16.29696-13.66784-7.232-3.74016-14.97856-5.85984-21.30432-6.17216-6.84288-0.33792-9.2416 1.4592-9.58976 1.85856-0.04096 0.04608-0.384 0.37376-0.4736 1.69984-0.08704 1.32864 0.1024 3.61216 1.25184 7.07072l0.5504 1.55136c60.32384 159.85664 74.52928 298.43712 86.53312 404.03456 6.03392 53.09952 11.42784 96.91136 21.47328 131.4688 9.98912 34.35776 24.03328 57.55904 45.96736 71.37792l0.96256 0.58112c4.7616 2.75456 8.87552 3.29216 12.46464 2.83392 4.07296-0.51712 8.36096-2.44736 12.61056-5.68576 4.23936-3.23072 7.99744-7.4368 10.86976-11.68896 2.96704-4.3904 4.46464-8.04352 4.88192-9.88416l0.45824-2.20672c2.18624-11.33824 2.56768-27.33568 1.08288-47.48032-1.56928-21.27104-5.14816-46.3104-10.2784-73.856-10.25792-55.08352-26.57536-119.4368-44.78976-182.35648-18.20416-62.89152-38.24128-124.13184-55.87456-172.93312-8.8192-24.4096-17.00864-45.62176-24.0384-62.33344-7.14752-16.9856-12.78464-28.55168-16.4608-34.21184z m21.47328-13.9392c5.04832 7.77728 11.4432 21.25568 18.58048 38.2208 7.25504 17.24416 15.60832 38.89408 24.51968 63.5648 17.83296 49.34912 38.03904 111.11424 56.39168 174.51264 18.3424 63.36512 34.90048 128.58624 45.36576 184.78848 5.23264 28.096 8.98048 54.12864 10.64192 76.66176 1.59488 21.61664 1.34144 40.84224-1.792 55.78752l-0.31232 1.4336c-1.344 5.93152-4.56448 12.53376-8.63744 18.56256-4.16512 6.16704-9.7664 12.53888-16.56576 17.71776-6.78656 5.17376-15.21664 9.48992-24.896 10.72128-9.6128 1.22112-19.64032-0.71168-29.3632-6.56896l-0.93952-0.58112c-29.45792-18.55488-46.07488-48.64256-56.90368-85.89056-10.77248-37.05088-16.35328-83.16928-22.32832-135.72608-12.01664-105.7152-25.984-241.35936-85.04832-397.88544l-0.448-1.22624c-4.49792-12.68736-4.52352-25.50272 3.82464-35.01824 7.95136-9.06496 20.12928-11.0336 30.0928-10.54464 10.48576 0.51712 21.79072 3.82208 31.80544 8.9984 9.97632 5.1584 19.66336 12.69248 26.0096 22.47168z" fill="#000000" p-id="2139"></path><path d="M163.84 317.0432c119.3856 316.38528 45.696 539.62752 148.48 604.37504 30.3744 19.136 45.12256-8.77824 48.64-24.32 24.06144-106.28608-114.86464-519.68256-149.76-573.44-19.2256-29.61408-63.92576-50.51904-47.36-6.61504z" fill="#E5D8BF" p-id="2140"></path><path d="M167.67744 341.57824c111.24992 296.192 56.59392 489.83552 131.84 568.32 22.23616 23.19616 37.58336-13.19168 38.40256-25.6 5.6064-84.86912-104.1024-476.69504-132.7872-530.35264-15.80544-29.56032-52.89216-53.46816-37.45536-12.36736z" fill="#FBF1DE" p-id="2141"></path><path d="M341.81376 384.18688c22.8992-0.00768 51.01568-8.12288 81.792-19.72736l4.21888-1.56928c21.57824-7.95392 50.07104-17.34656 71.83872-29.36576 11.712-6.46912 22.8608-14.39232 30.33088-24.4352 7.616-10.24 11.29984-22.62784 8.13056-36.58752l-0.32768-1.3568c-4.34688-16.90624-15.7696-29.30944-29.83936-37.94688-13.952-8.56832-31.09376-13.84448-48.6912-16.6784-33.92768-5.46304-72.62208-2.304-100.21632 7.34208l-2.63424 0.95488c-28.54656 10.7008-49.82272 31.50848-61.96224 54.6432-12.01152 22.8864-15.77216 49.52832-6.72768 71.64928l0.43776 1.0496c4.62336 10.752 11.73504 19.01568 21.25568 24.45568 9.61536 5.49376 20.74624 7.57504 32.39424 7.57248z m72.76032-43.67872c-30.5024 11.50208-54.86848 18.07104-72.77056 18.07616-8.75264 0.00256-15.10144-1.57952-19.68384-4.19584-4.09856-2.3424-7.56992-5.94944-10.18624-11.77088l-0.512-1.19552c-5.40928-13.23008-3.88096-31.81312 5.69856-50.06336 9.44896-18.00448 26.06848-34.24768 48.27648-42.57024l2.19392-0.7936c23.05024-8.0384 57.34912-11.07456 87.60832-6.20288 15.52896 2.50112 29.16864 6.95808 39.36512 13.21984 10.08128 6.19008 16.1792 13.70624 18.43968 22.50496l0.25856 1.12128c1.13152 5.5552-0.1664 10.27328-3.81184 15.17312-4.27776 5.75232-11.73248 11.54304-22.16192 17.30048-19.7504 10.9056-45.21472 19.21792-68.16256 27.69664l-4.55168 1.69984z" fill="#000000" p-id="2142"></path><path d="M514.56 276.29824c9.11616 35.46624-58.84928 51.58656-98.56 66.56-52.84096 19.92448-88.63488 27.23584-101.184-3.456-12.46208-30.48448 9.12128-77.99296 52.8896-94.39488C411.47648 228.608 503.16544 231.96928 514.56 276.3008z" fill="#895221" p-id="2143"></path><path d="M483.84256 277.57824c9.37984 36.4928-30.81984 43.47392-71.68 58.88-54.37184 20.50304-86.92992 36.70016-99.84 5.12-12.8256-31.37024 6.16192-75.28192 51.19744-92.16 45.04064-16.87808 110.12352-11.52 120.32256 28.16z" fill="#B16929" p-id="2144"></path><path d="M335.82848 328.1664c-9.65888 9.78432-23.68512 18.72896-41.8432 27.3664-18.27584 8.69376-41.45664 17.41056-70.02624 26.44992l-2.5344 0.81408c-12.73856 4.1728-26.56512 9.71264-41.6 15.33184-15.6672 5.85472-32.3456 11.67104-48.4096 14.9888-15.95392 3.29472-32.60928 4.41856-47.74912-0.30976-15.296-4.77952-27.81696-15.15264-36.19328-32.08448l-0.79616-1.65888c-16.59648-35.51744-5.25312-74.37824 16.0896-105.18528C83.8656 243.42016 116.48512 217.97888 149.4272 207.0144l1.56672-0.512c33.53088-10.68544 72.96512-8.40448 107.17696 1.4208 33.35168 9.57696 64.45824 27.13344 80.56832 50.11712l0.7552 1.09824c7.30624 10.82112 12.33664 22.49216 12.14464 34.86976-0.19968 12.78464-5.92384 24.14592-15.808 34.15808z m-18.63424-56.2432c-11.57888-15.86432-35.93216-30.73536-66.09152-39.39584-30.79936-8.8448-64.88064-10.38336-92.33664-1.63072l-2.58304 0.86016c-26.7264 9.28768-54.38208 30.72512-72.3712 56.69632-18.6624 26.94144-25.12896 55.83872-13.94432 79.77472l0.52224 1.088c5.46048 11.07456 12.67712 16.48384 20.91008 19.05664 9.14944 2.85696 20.82816 2.58816 34.93376-0.32512 13.99296-2.89024 29.09696-8.09472 44.62848-13.89824 14.208-5.312 29.11488-11.264 42.68032-15.70816l2.69312-0.86784c27.97056-8.84736 49.93536-17.15968 66.752-25.15968 16.93184-8.05376 27.94752-15.47008 34.62144-22.23104 6.4512-6.53568 8.35584-11.91168 8.43008-16.576 0.07936-5.07136-1.97376-11.56608-7.76448-20.14464l-1.08032-1.53856z" fill="#000000" p-id="2145"></path><path d="M68.51328 368.05632c25.50528 54.58432 95.65696 6.25664 146.52672-9.83808 103.81568-32.8448 125.95968-53.08928 101.9136-88.71168-24.76544-36.6848-104.8064-57.13152-160.7936-39.28832-55.9872 17.8432-113.152 83.25376-87.64672 137.83808z" fill="#895221" p-id="2146"></path><path d="M71.424 373.4016c25.99424 45.90336 88.28672-2.79296 133.37344-21.5808 61.44256-25.60256 98.86464-35.20512 74.24-71.68256-25.3568-37.56288-80.0512-56.77312-131.83744-42.24-51.78624 14.53312-101.76768 89.6-75.776 135.50336z" fill="#B16929" p-id="2147"></path><path d="M782.9888 200.63232c-24.39424 11.3024-65.18272 18.4576-126.336 23.13984l-2.77248 0.22272c-13.97248 1.1776-29.5552 3.2512-46.0416 5.15584-17.27488 1.9968-35.31264 3.77088-51.7632 3.72992-16.17152-0.04096-32.41472-1.81248-45.27872-8.0384-13.89056-6.72256-23.56736-18.6112-24.90112-36.33408-1.25952-16.6912 5.2992-33.08032 15.23968-47.59296 10.0224-14.6304 24.20992-28.44928 40.2688-40.46592 31.90784-23.87712 73.44128-42.25792 109.52192-45.0816 36.3776-2.84416 73.37728 9.3568 102.37952 26.48832 14.58688 8.61696 27.51744 18.69312 37.63712 29.20448 9.96864 10.3552 17.90464 21.8624 21.3504 33.46432l0.56064 2.01472c2.63936 10.10176 2.64192 20.62848-2.46272 30.55104-5.29408 10.2912-15.00416 17.79712-27.40224 23.54176z m-128.29184-2.38592c61.28384-4.69504 97.79712-11.6992 117.5296-20.8384 9.664-4.48 13.72416-8.768 15.40352-12.032 1.52576-2.9696 2.06592-7.00928 0.12032-13.56288l-0.38144-1.1776c-2.08384-6.0032-6.93504-13.5808-14.86848-21.82144-8.31488-8.63744-19.35872-17.32096-32.21504-24.91648-25.88672-15.29088-57.65888-25.3312-87.36256-23.00672-30.00576 2.34752-67.0208 18.23232-96.18176 40.05376-14.4768 10.83136-26.45504 22.71744-34.48576 34.43712-8.11008 11.84256-11.49184 22.45376-10.83392 31.20128 0.58368 7.71584 3.99616 12.0576 10.52928 15.2192 7.5648 3.6608 19.0848 5.44 34.1888 5.4784 14.82496 0.0384 31.57248-1.5744 48.76288-3.5584 15.82592-1.8304 32.27392-4.00896 46.89664-5.24288l2.89792-0.23296z" fill="#000000" p-id="2148"></path><path d="M508.9664 184.78592c2.84416 37.75232 86.62272 20.25984 142.33856 15.99232 113.71264-8.70912 147.06176-20.49792 137.54112-52.56192C779.04128 115.2 712.6784 75.65824 651.30496 80.4608c-61.37344 4.80256-145.18272 66.57536-142.33856 104.32768z" fill="#895221" p-id="2149"></path><path d="M509.43744 186.7008c2.8928 38.4 92.1344 13.12 145.92 6.39744 92.16256-11.52 105.23392-20.096 96-51.2-9.5104-32.0256-63.54432-67.35104-107.52-60.16-58.9312 9.63584-137.2928 66.56-134.4 104.96z" fill="#B16929" p-id="2150"></path><path d="M824.77312 336.66048c-23.77728-10.28096-47.04-10.09664-60.03456 5.824-12.69504 15.55456-8.69888 37.9392 3.78368 56.79872l1.23392 1.81248c17.87136 25.55392 24.57088 63.0656 21.96992 108.39296-2.5856 45.03296-14.25152 95.99488-31.0784 146.7008-33.75872 101.72672-87.29856 199.56224-125.87264 243.33312l-0.84736 0.9984c-17.4464 21.25312-9.3824 59.06944 23.67488 66.8928 16.09984 3.80928 35.75808-0.32256 58.04288-13.5296 21.6832-12.84608 46.97344-34.90048 75.93472-69.41696l2.816-3.37664c70.9376-85.81376 108.06016-207.05792 113.86112-312.9216 2.9056-53.01248-1.99168-102.94528-14.95296-143.26272-12.87168-40.03072-34.3936-72.57344-66.2272-87.21664l-2.304-1.02912z m-40.20224 22.01088c1.87136-2.29376 9.95584-7.21664 29.84704 1.39776l1.96096 0.87808c22.51264 10.3552 40.71424 34.96192 52.55424 71.79264 11.74784 36.54656 16.5504 83.1872 13.76512 134.0288-5.5808 101.84192-41.40544 217.408-108.03456 298.0096l-2.70848 3.25376c-27.83744 33.17248-50.99264 52.94848-69.35808 63.83104-19.05408 11.2896-31.79008 12.36992-39.09888 10.63936-12.82816-3.03616-16.13568-17.37472-10.1248-25.30816l0.60928-0.74496c41.62816-47.23712 96.5632-148.54656 130.95936-252.19328 17.25184-51.98336 29.58336-105.2672 32.34048-153.29792 2.74176-47.74144-3.87584-92.11648-26.5472-124.53376l-0.98048-1.44128c-9.74336-14.70208-7.35744-23.64928-5.184-26.31168z" fill="#000000" p-id="2151"></path><path d="M794.88 394.05824c81.08544 115.9424-41.19808 439.2192-138.24 512-20.48 15.36 5.12 101.09696 123.60704-42.24 137.56928-166.41536 136.13056-464.56064 27.43296-514.56-45.89568-21.10976-37.12512 10.01728-12.8 44.8z" fill="#E5D8BF" p-id="2152"></path><path d="M793.59488 396.61824c75.52256 116.6464-50.36544 422.3232-130.55744 505.6-28.16 29.24288-7.488 72.45568 92.16-43.52 134.48448-156.52352 138.52416-454.51776 38.4-505.6-42.08128-21.46816-22.83776 8.25088-0.31488 43.03616l0.31232 0.48384z" fill="#FBF1DE" p-id="2153"></path><path d="M921.49248 312.59136c-14.52032 26.2528-42.65984 53.20448-76.59264 74.40128l-2.1504 1.3568c-10.81344 6.87872-22.52032 15.2064-35.37152 23.95648-13.43744 9.14944-27.83488 18.55232-42.2016 25.92-27.13856 13.91872-60.32896 23.62112-86.49216 0.94464l-1.2416-1.10592c-30.09792-27.51488-29.56544-66.8032-17.35168-100.99712 11.87072-33.22624 35.70432-65.17248 60.45696-85.52192l2.39872-1.93024c26.43456-20.88192 62.23872-31.42144 96.23552-33.34656 33.28768-1.88672 67.15648 4.3648 90.5728 19.712l1.10592 0.73728c12.93312 8.76032 20.05248 21.03808 21.20704 35.20768 1.10336 13.5424-3.31776 27.53792-10.57536 40.6656z m-90.15552 52.68992c31.63392-19.76064 56.01024-43.85024 67.7504-65.08032 5.87008-10.61632 8.0128-19.47648 7.46496-26.19648-0.49664-6.08768-3.24608-11.4816-10.048-16.0896l-1.64608-1.0752c-17.31584-10.9568-44.66944-16.68864-74.2272-15.0144-30.32832 1.72032-60.60544 11.12064-81.8176 27.87584l-2.06848 1.66912c-21.34528 17.56416-42.3296 45.71136-52.54656 74.30912-10.58048 29.62176-8.62464 55.99488 10.51648 73.49248l0.61696 0.54784c13.0176 11.31264 31.67232 9.31328 58.1632-4.27264 12.87168-6.59968 26.17344-15.2448 39.4752-24.29952 12.21376-8.31744 24.72448-17.19808 36.10624-24.43776l2.26048-1.42848z" fill="#000000" p-id="2154"></path><path d="M695.11424 419.55072c35.74272 32.6784 93.1712-24.58368 135.60576-51.09248 59.49696-37.16864 101.09696-89.65376 65.28-113.92-36.88448-24.9856-112.9216-20.0704-156.16 14.08-43.2384 34.15296-89.408 110.08512-44.72576 150.93248z" fill="#895221" p-id="2155"></path><path d="M693.76 415.81824c33.18528 30.33856 91.29472-28.30848 129.28512-55.04 34.56256-24.32 70.36928-69.632 37.11744-92.16-34.24512-23.19872-90.88-21.53472-120.96512 2.2272-40.1408 31.70816-86.91968 107.05152-45.43744 144.9728z" fill="#B16929" p-id="2156"></path><path d="M493.63712 466.46016c12.0832-3.33568 24.13056-1.35424 33.99168 3.37408 9.75872 4.68224 18.21696 12.44928 22.93248 21.952 4.69504 9.46432 5.78048 21.16608-0.33792 31.9872l-0.61696 1.04704c-2.15552 3.52256-4.87424 11.06176-7.5776 23.12704-2.6112 11.6608-4.95872 26.33728-6.92992 43.1616-3.93728 33.62304-6.2976 75.08224-6.48192 116.6592-0.18688 41.61024 1.80992 82.95936 6.4768 116.44416 2.33472 16.75776 5.29664 31.22944 8.8576 42.64448 3.6736 11.77344 7.54944 18.82624 10.83136 22.18496 6.8864 7.04 11.34592 15.0016 12.8768 23.5392 1.536 8.58624-0.064 16.80896-3.73504 23.95648-7.15264 13.93152-21.89568 23.61856-37.9008 27.65312-16.33536 4.11904-35.56864 2.82112-53.12256-7.05792-17.69728-9.96352-32.54272-27.99104-41.22368-55.2576l-0.00256-0.00256c-13.55264-42.5728-26.39104-109.62176-25.72032-183.4624 0.67072-73.81504 14.85568-155.392 56.30208-226.18112l0.76544-1.28256c8.02304-13.08928 18.70592-21.1968 30.61504-24.4864z m22.92224 26.45504c-5.19424-2.49088-10.88512-3.22048-16.10496-1.77664-4.6976 1.29536-10.1632 4.66176-15.12192 12.416l-0.9856 1.61024c-38.464 65.69984-52.14976 142.4384-52.79744 213.4784-0.64512 71.01696 11.75808 135.37024 24.51968 175.46496l0.67328 2.05056c7.08608 20.8896 17.92512 32.5888 28.71552 38.66112 11.28448 6.35136 23.6928 7.22432 34.30912 4.54912 10.944-2.75968 18.46016-8.82944 21.38368-14.52544 1.3696-2.66496 1.76384-5.22496 1.31072-7.75168-0.4608-2.5728-1.97376-6.05696-5.9776-10.1504-7.61088-7.77984-12.95616-19.58656-16.9728-32.4608-4.12928-13.2352-7.32928-29.20192-9.77152-46.73536-4.89216-35.10272-6.912-77.76-6.72512-120.09216 0.18944-42.368 2.59328-84.79744 6.66112-119.52384 2.03264-17.35168 4.50304-32.96512 7.3728-45.77792 2.78016-12.40576 6.208-23.52128 10.72384-30.8992l0.24064-0.41728c1.12896-2.112 1.2288-4.61568-0.38656-7.87456-1.85856-3.74528-5.7728-7.7056-11.06688-10.24512z" fill="#000000" p-id="2157"></path><path d="M478.65088 499.11552C409.49248 636.4416 431.36 810.05824 455.68 897.15456c23.36768 69.11232 114.23744 47.75936 77.97504 3.78368-36.2624-43.97568-35.77344-337.55392-12.69504-381.44 14.08512-26.78528-19.25632-66.15808-42.30912-20.38272z" fill="#E5D8BF" p-id="2158"></path><path d="M477.43744 527.17824c-69.71392 119.0784-44.72064 292.67712-21.76 364.8 22.96064 72.12544 90.49088 38.86336 52.48256 0-38.00832-38.86336-33.53088-304.9984-10.24512-343.04 14.21568-23.2192 2.76224-61.45024-20.47744-21.76z" fill="#FBF1DE" p-id="2159"></path><path d="M586.36032 635.60192c-21.31712 7.936-50.24256 7.424-82.0736 3.74016l-4.31872-0.47872c-22.10048-2.3424-51.49184-4.17536-75.72224-11.42784-13.19936-3.95264-26.11456-9.81248-36.31104-19.11552-10.15296-9.26464-17.10336-21.4912-19.27424-37.08928l-0.19456-1.51808c-4.69504-39.88992 19.78368-70.3872 49.48992-89.18272 29.18656-18.46784 66.41152-27.80672 95.73632-24.90624l1.39008 0.14592c30.4384 3.4432 57.16992 21.68832 76.09088 44.54144 18.89024 22.8224 31.31904 51.80672 31.63904 78.96064l-0.00512 2.55744c-0.2048 12.67456-3.10528 23.85152-9.2544 33.12896-6.59456 9.95328-16.13824 16.52992-27.19232 20.64384z m-79.1296-21.68832c31.62624 3.6608 55.11168 3.31264 70.19776-2.304 7.14752-2.65984 11.8016-6.29248 14.78656-10.79296 2.83136-4.2752 4.85376-10.38336 4.99712-19.39968l0.00256-1.8432c-0.23808-20.06784-9.73568-43.57888-25.76128-62.93504-15.99488-19.32288-37.16864-32.9344-59.24864-35.4304l-2.18368-0.21504c-22.8096-1.90976-53.77536 5.60128-78.37696 21.16864-25.34144 16.03584-40.83456 38.37184-37.75488 64.55552l0.25856 1.86112c1.45152 9.12384 5.40672 15.69024 11.04128 20.83072 6.29248 5.73952 15.1936 10.14784 26.39872 13.50144 21.53472 6.44608 47.01696 7.9104 70.89152 10.47296l4.75136 0.52992z" fill="#000000" p-id="2160"></path><path d="M392.13824 567.0528c5.6064 47.63904 70.47936 43.47136 113.46176 48.44544 57.19552 6.62016 93.2992 4.50304 92.79232-38.34368-0.50432-42.56-36.49792-90.7008-83.83232-96.05632-47.33696-5.35552-129.42848 26.40384-122.42176 85.95456z" fill="#895221" p-id="2161"></path><path d="M392.96256 565.57824c5.51936 46.89664 61.15072 41.088 103.67744 43.52 44.8 2.56 77.2992 3.776 76.8-38.4-0.49664-41.89696-35.84-84.98944-65.27744-88.32-38.4-4.34432-122.0992 24.57856-115.2 83.2z" fill="#B16929" p-id="2162"></path></svg>