<?xml version="1.0" standalone="no"?><!DOCTYPE svg PUBLIC "-//W3C//DTD SVG 1.1//EN" "http://www.w3.org/Graphics/SVG/1.1/DTD/svg11.dtd"><svg t="1755995866402" class="icon" viewBox="0 0 1024 1024" version="1.1" xmlns="http://www.w3.org/2000/svg" p-id="7876" xmlns:xlink="http://www.w3.org/1999/xlink" width="64" height="64"><path d="M707.247334 472.239438c62.165852 0 112.562659-50.39783 112.562659-112.563682 0-62.167898-50.396807-112.563682-112.562659-112.563682-62.167898 0-112.564705 50.395784-112.564705 112.563682C594.682629 421.841607 645.079436 472.239438 707.247334 472.239438zM707.246311 308.510446c28.257577 0 51.16531 22.906709 51.16531 51.16531 0 28.257577-22.907733 51.16531-51.16531 51.16531s-51.16531-22.907733-51.16531-51.16531C656.081001 331.417155 678.988734 308.510446 707.246311 308.510446z" p-id="7877" fill="#111"></path><path d="M873.698321 134.571928 153.733848 134.571928c-33.909297 0-61.398372 27.489074-61.398372 61.398372l0 645.198651c0 33.911344 27.489074 61.398372 61.398372 61.398372l719.964472 0c33.909297 0 61.398372-27.487028 61.398372-61.398372L935.096692 195.9703C935.096692 162.061003 907.607618 134.571928 873.698321 134.571928zM870.290711 839.080383 157.141458 839.080383 157.141458 199.036126l713.149253 0L870.290711 839.080383z" p-id="7878" fill="#111"></path><path d="M194.425619 776.23608c0.046049 0.425695 0.098237 0.851391 0.161682 1.27504 0.027629 0.186242 0.061398 0.36839 0.092098 0.553609 0.053212 0.317225 0.106424 0.633427 0.169869 0.949628 0.047072 0.23843 0.101307 0.476861 0.153496 0.713244 0.058328 0.261966 0.115634 0.523933 0.181125 0.784876 0.064468 0.257873 0.135076 0.514723 0.205685 0.77055 0.066515 0.243547 0.134053 0.488117 0.206708 0.729617 0.075725 0.249687 0.155543 0.496304 0.237407 0.744967 0.082888 0.252757 0.166799 0.505513 0.255827 0.756223 0.078795 0.220011 0.160659 0.436952 0.243547 0.654916 0.107447 0.282433 0.216941 0.563842 0.332575 0.843204 0.072655 0.173962 0.147356 0.346901 0.222057 0.518816 0.13917 0.321318 0.282433 0.641613 0.432859 0.959861 0.058328 0.122797 0.118704 0.243547 0.178055 0.364297 0.178055 0.364297 0.36225 0.725524 0.554632 1.083681 0.036839 0.068562 0.074701 0.137123 0.11154 0.204661 0.220011 0.402159 0.448208 0.800225 0.686638 1.194198 0.013303 0.021489 0.027629 0.045025 0.041956 0.066515 1.302669 2.142803 2.870374 4.1536 4.700045 5.980201 0.023536 0.023536 0.049119 0.047072 0.073678 0.070608 0.330528 0.327458 0.666172 0.651846 1.013073 0.966001 0.096191 0.088004 0.195451 0.170892 0.292666 0.25685 0.280386 0.248663 0.561795 0.49835 0.852414 0.73985 0.236384 0.195451 0.479931 0.381693 0.722454 0.571005 0.152473 0.119727 0.299829 0.24457 0.456395 0.36225 0.01228 0.00921 0.024559 0.017396 0.037862 0.026606 0.854461 0.64059 1.741667 1.240247 2.659573 1.795902 0.080841 0.049119 0.163729 0.093121 0.245593 0.141216 0.370437 0.220011 0.74292 0.435928 1.12359 0.64059 0.156566 0.084934 0.317225 0.160659 0.474814 0.242524 0.305969 0.158612 0.610914 0.318248 0.923022 0.466628 0.200568 0.096191 0.403183 0.182149 0.604774 0.274246 0.273223 0.122797 0.545422 0.248663 0.822738 0.364297 0.230244 0.096191 0.461511 0.183172 0.692778 0.274246 0.254803 0.099261 0.506537 0.200568 0.76441 0.293689 0.252757 0.092098 0.50756 0.172939 0.762363 0.257873 0.240477 0.079818 0.478907 0.163729 0.722454 0.237407 0.275269 0.083911 0.551562 0.158612 0.827855 0.234337 0.226151 0.063445 0.450255 0.12996 0.678452 0.188288 0.305969 0.076748 0.613984 0.144286 0.921999 0.211824 0.200568 0.045025 0.401136 0.094144 0.603751 0.135076 0.353041 0.071631 0.708128 0.130983 1.063215 0.190335 0.161682 0.026606 0.321318 0.059352 0.483001 0.083911 0.448208 0.067538 0.898463 0.122797 1.347694 0.170892 0.071631 0.008186 0.143263 0.020466 0.214894 0.026606 1.069355 0.107447 2.140757 0.161682 3.211135 0.162706 0.01535 0 0.029676 0.001023 0.045025 0.001023l575.987337 0c17.673521 0 31.999808-14.326287 31.999808-31.999808s-14.326287-31.999808-31.999808-31.999808L290.305317 740.771357l137.828089-183.398983 90.308819 106.644879c8.736988 11.624758 23.863501 15.603373 36.81958 10.736529 5.931083-1.987261 11.343349-5.726421 15.385409-11.104919l47.109947-55.857169 90.25663 90.010013c10.618848 14.129812 30.67872 16.974603 44.806485 6.356778 14.129812-10.616802 16.975627-30.677697 6.355755-44.806485L645.018038 545.503045c-2.200108-2.928702-4.811586-5.364171-7.688099-7.30436-0.914836-0.874927-1.883907-1.711991-2.920516-2.491751-14.127765-10.617825-34.18866-7.773034-44.806485 6.356778l-45.263903 53.668317-91.953272-108.581997c-6.320962-8.411577-15.989159-12.82305-25.76071-12.775978-9.774621-0.050142-19.448958 4.360308-25.77299 12.774955L200.649368 753.542218c-5.034666 6.698562-7.037277 14.729469-6.251378 22.455431C194.406177 776.078491 194.417433 776.156262 194.425619 776.23608z" p-id="7879" fill="#111"></path></svg>