<?xml version="1.0" encoding="UTF-8"?>
<svg id="_图层_1" data-name="图层_1" xmlns="http://www.w3.org/2000/svg" version="1.1" viewBox="0 0 32 32">
  <!-- Generator: Adobe Illustrator 29.5.1, SVG Export Plug-In . SVG Version: 2.1.0 Build 141)  -->
  <defs>
    <style>
      .st0 {
        fill: #cdcdcd;
      }
    </style>
  </defs>
  <path class="st0" d="M25.9,10.9c0-5.5-4.5-9.9-10-9.9-5.4,0-9.8,4.4-9.9,9.9C1.3,13.7-.2,19.8,2.7,24.5c2.8,4.6,8.7,6.2,13.3,3.6,4.8,2.7,10.9.9,13.5-3.9,2.6-4.7,1-10.6-3.6-13.4ZM18.1,22.5c-.2-.6-.2-1.1-.2-1.7h0c0-2.7,1.7-5.1,4.2-6,1,3.2-.7,6.6-3.9,7.7h0ZM10.9,20.2c-1-1.5-1.4-3.3-1-5,2.5.7,4.4,3,4.5,5.7,0,.1,0,.3,0,.4,0,.5,0,.9-.2,1.4-1.4-.4-2.6-1.2-3.4-2.4ZM20.3,12.1c-2.4,2.3-6.2,2.3-8.6,0,1-1,2.3-1.6,3.7-1.7.2,0,.4,0,.6,0s.4,0,.6,0c1.4.1,2.7.7,3.7,1.7ZM16,19.1c-1.4,0-2.5-1.1-2.5-2.5s1.1-2.5,2.5-2.5,2.5,1.1,2.5,2.5h0c0,1.4-1.1,2.5-2.5,2.5ZM9.7,7.4c0-3.5,2.8-6.3,6.3-6.3,3.5,0,6.3,2.8,6.3,6.3,0,.7-.1,1.4-.4,2.1,0,.2-.2.4-.2.6-3.3-2.9-8.2-2.9-11.5,0,0-.2-.2-.4-.2-.6-.2-.7-.4-1.4-.4-2.1h0ZM8.2,27.5c-3.5,0-6.3-2.8-6.3-6.3,0-3,2.1-5.6,5.1-6.2.2,0,.4,0,.6,0,0,.3-.1.7-.1,1,0,.2,0,.4,0,.7,0,3.3,1.9,6.3,4.8,7.8.4.2.8.3,1.2.5-.1.2-.3.4-.5.6-1.2,1.4-2.9,2.1-4.7,2.1ZM24.1,27c-1.8,0-3.5-.8-4.7-2.1,0-.1-.2-.2-.3-.3.2,0,.4-.2.6-.3,3-1.5,4.8-4.5,4.8-7.8,0-.2,0-.4,0-.7,0-.5-.1-1-.3-1.6.3,0,.6,0,.9.1,3.4.6,5.7,4,5.1,7.4-.6,3-3.2,5.2-6.2,5.2h0Z"/>
</svg>