<?xml version="1.0" encoding="UTF-8"?>
<svg xmlns="http://www.w3.org/2000/svg" version="1.1" viewBox="0 0 124.1 127.67">
  <!-- Generator: Adobe Illustrator 29.5.1, SVG Export Plug-In . SVG Version: 2.1.0 Build 141)  -->
  <defs>
    <style>
      .st0 {
        fill: #1296db;
      }
    </style>
  </defs>
  <path class="st0" d="M111.5,9.74c0,5.38-4.36,9.74-9.74,9.74s-9.74-4.36-9.74-9.74S96.38,0,101.76,0s9.74,4.36,9.74,9.74Z"/>
  <path class="st0" d="M28.44,46.23h-9.79c-.94,0-2.11-.41-2.85-.99l-5.15-4.09c-.61-.48-.99-1.17-1.07-1.94-.08-.77.14-1.53.63-2.13l5.43-6.61c.55-.67,1.36-1.05,2.23-1.05.67,0,1.33.24,1.84.67l1.4,1.17.65-.79c.54-.65,1.33-1.03,2.18-1.03.73,0,1.42.28,1.95.78l1.1,1.05.95-.97c.54-.56,1.31-.88,2.1-.88.72,0,1.41.26,1.95.74l1.98,1.76c-.86-8.6-8.11-15.32-16.94-15.32C7.62,16.58,0,24.21,0,33.61c0,6.92,4.12,12.86,10.04,15.53l-4.12,25.19h22.21l-4.12-25.19c1.63-.74,3.12-1.73,4.43-2.91Z"/>
  <path class="st0" d="M74.75,54.67c-3.16-.03-5.72-2.61-5.72-5.77s2.56-5.74,5.72-5.77l1.6-.07v-19.92c0-1.86-1.63-3.39-3.63-3.39h-14.51c-2,0-4.56,1.25-5.71,2.78l-8.61,11.51h-9.58c-.5,0-1.21-.27-1.58-.6l-2.05-1.82c-.37-.33-.96-.31-1.31.05l-1.68,1.72c-.35.36-.93.37-1.29.02l-1.86-1.77c-.36-.34-.92-.31-1.24.07l-1.34,1.62c-.32.38-.89.44-1.27.12l-2.24-1.86c-.38-.32-.95-.27-1.27.12l-5.43,6.61c-.32.39-.26.96.13,1.26l5.16,4.09c.39.31,1.12.56,1.62.56h25.56l8.27,11.06c1.14,1.53,3.71,2.78,5.71,2.78h14.51c1.98,0,3.6-1.5,3.63-3.34l-1.59-.07ZM67.5,46.41c0,1-.81,1.81-1.81,1.81h-4.31c-1,0-1.81-.81-1.81-1.81v-14.97c0-1,.81-1.81,1.81-1.81h4.31c1,0,1.81.81,1.81,1.81v14.97Z"/>
  <path class="st0" d="M115.18,61.29l.38-14.81c0-19.14-4.62-23.29-18.04-23.29l-19.21,1.03v10.85l7.99.64.29,6.91,4.45-.2,6.09-7.78,1.54,1.25-6.62,8.46-17.24.76c-2.09,0-3.79,1.7-3.79,3.79s1.7,3.79,3.79,3.79l19.54.86c1.5,0,2.65-.77,3.68-1.81.06-.06,5.84-6.24,8.7-9.3l1.54,1.25c-8.73,9.34-8.8,9.41-8.83,9.44-1.02,1.03-2.65,2.4-5.08,2.4h-.04l-7.18-.32,2.8,67.52c0,2.73,2.21,4.94,4.94,4.94s4.94-2.21,4.94-4.94l1.36-30.91h1.2l1.36,30.91c0,2.73,2.21,4.94,4.94,4.94s4.94-2.21,4.94-4.94l.79-30.91h9.7s.37-18.36-8.92-30.54Z"/>
</svg>